<svg version="1.1" viewBox="0.0 0.0 371.0 230.0" fill="none" stroke="none" stroke-linecap="square" stroke-miterlimit="10" width="371" height="230" xmlns:xlink="http://www.w3.org/1999/xlink" xmlns="http://www.w3.org/2000/svg"><path fill="#ffffff" d="M0 0L371.0 0L371.0 230.0L0 230.0L0 0Z" fill-rule="nonzero"/><path stroke="#333333" stroke-width="1.0" stroke-linecap="butt" d="M73.5 18.5L73.5 166.5" fill-rule="nonzero"/><path stroke="#cccccc" stroke-width="1.0" stroke-linecap="butt" d="M105.5 18.5L105.5 166.5" fill-rule="nonzero"/><path stroke="#cccccc" stroke-width="1.0" stroke-linecap="butt" d="M137.5 18.5L137.5 166.5" fill-rule="nonzero"/><path stroke="#cccccc" stroke-width="1.0" stroke-linecap="butt" d="M168.5 18.5L168.5 166.5" fill-rule="nonzero"/><path stroke="#cccccc" stroke-width="1.0" stroke-linecap="butt" d="M200.5 18.5L200.5 166.5" fill-rule="nonzero"/><path stroke="#cccccc" stroke-width="1.0" stroke-linecap="butt" d="M232.5 18.5L232.5 166.5" fill-rule="nonzero"/><path stroke="#cccccc" stroke-width="1.0" stroke-linecap="butt" d="M264.5 18.5L264.5 166.5" fill-rule="nonzero"/><path stroke="#cccccc" stroke-width="1.0" stroke-linecap="butt" d="M295.5 18.5L295.5 166.5" fill-rule="nonzero"/><path stroke="#cccccc" stroke-width="1.0" stroke-linecap="butt" d="M327.5 18.5L327.5 166.5" fill-rule="nonzero"/><path stroke="#cccccc" stroke-width="1.0" stroke-linecap="butt" d="M359.5 18.5L359.5 166.5" fill-rule="nonzero"/><path stroke="#cccccc" stroke-width="1.0" stroke-linecap="butt" d="M73.5 166.5L359.5 166.5" fill-rule="nonzero"/><path stroke="#cccccc" stroke-width="1.0" stroke-linecap="butt" d="M73.5 117.5L359.5 117.5" fill-rule="nonzero"/><path stroke="#cccccc" stroke-width="1.0" stroke-linecap="butt" d="M73.5 67.5L359.5 67.5" fill-rule="nonzero"/><path stroke="#cccccc" stroke-width="1.0" stroke-linecap="butt" d="M73.5 18.5L359.5 18.5" fill-rule="nonzero"/><clipPath id="id_0"><path d="M73.5 18.5L359.5 18.5L359.5 166.5L73.5 166.5L73.5 18.5Z" clip-rule="nonzero"/></clipPath><path stroke="#4285f4" stroke-width="2.0" stroke-linecap="butt" clip-path="url(#id_0)" d="M327.72223 61.321335L264.16666 56.98L200.61111 63.788L137.05556 105.03067L105.27778 134.03867" fill-rule="nonzero"/><path fill="#4285f4" clip-path="url(#id_0)" d="M324.54025 58.139355L330.9042 58.139355L330.9042 64.50331L324.54025 64.50331Z" fill-rule="nonzero"/><path fill="#4285f4" clip-path="url(#id_0)" d="M260.98468 53.79802L267.34863 53.79802L267.34863 60.16198L260.98468 60.16198Z" fill-rule="nonzero"/><path fill="#4285f4" clip-path="url(#id_0)" d="M197.42914 60.606018L203.79309 60.606018L203.79309 66.96998L197.42914 66.96998Z" fill-rule="nonzero"/><path fill="#4285f4" clip-path="url(#id_0)" d="M133.87358 101.84869L140.23753 101.84869L140.23753 108.21265L133.87358 108.21265Z" fill-rule="nonzero"/><path fill="#4285f4" clip-path="url(#id_0)" d="M102.095795 130.85669L108.459755 130.85669L108.459755 137.22064L102.095795 137.22064Z" fill-rule="nonzero"/><path fill="#000000" d="M143.95312 215.5L143.95312 206.90625L150.15625 206.90625L150.15625 207.92188L145.09375 207.92188L145.09375 210.54688L149.84375 210.54688L149.84375 211.5625L145.09375 211.5625L145.09375 214.48438L150.35938 214.48438L150.35938 215.5L143.95312 215.5ZM151.79688 217.89062L151.79688 209.28125L152.75 209.28125L152.75 210.07812Q153.09375 209.60938 153.51562 209.375Q153.95312 209.14062 154.5625 209.14062Q155.35938 209.14062 155.96875 209.54688Q156.57812 209.95312 156.875 210.70312Q157.1875 211.45312 157.1875 212.34375Q157.1875 213.29688 156.84375 214.0625Q156.51562 214.82812 155.85938 215.23438Q155.20312 215.64062 154.48438 215.64062Q153.95312 215.64062 153.53125 215.42188Q153.10938 215.1875 152.84375 214.85938L152.84375 217.89062L151.79688 217.89062ZM152.75 212.42188Q152.75 213.625 153.23438 214.20312Q153.71875 214.76562 154.40625 214.76562Q155.10938 214.76562 155.60938 214.17188Q156.10938 213.57812 156.10938 212.32812Q156.10938 211.14062 155.625 210.5625Q155.14062 209.96875 154.45312 209.96875Q153.78125 209.96875 153.26562 210.59375Q152.75 211.21875 152.75 212.42188ZM158.40625 212.39062Q158.40625 210.65625 159.35938 209.82812Q160.15625 209.14062 161.3125 209.14062Q162.59375 209.14062 163.40625 209.98438Q164.23438 210.8125 164.23438 212.29688Q164.23438 213.5 163.875 214.1875Q163.51562 214.875 162.8125 215.26562Q162.125 215.64062 161.3125 215.64062Q160.01562 215.64062 159.20312 214.8125Q158.40625 213.96875 158.40625 212.39062ZM159.48438 212.39062Q159.48438 213.57812 160.0 214.17188Q160.53125 214.76562 161.3125 214.76562Q162.10938 214.76562 162.625 214.17188Q163.14062 213.57812 163.14062 212.35938Q163.14062 211.20312 162.60938 210.60938Q162.09375 210.01562 161.3125 210.01562Q160.53125 210.01562 160.0 210.60938Q159.48438 211.1875 159.48438 212.39062ZM169.85938 213.21875L170.89062 213.35938Q170.71875 214.42188 170.01562 215.03125Q169.3125 215.64062 168.29688 215.64062Q167.01562 215.64062 166.23438 214.8125Q165.46875 213.96875 165.46875 212.40625Q165.46875 211.40625 165.79688 210.65625Q166.14062 209.89062 166.8125 209.51562Q167.5 209.14062 168.3125 209.14062Q169.3125 209.14062 169.95312 209.65625Q170.60938 210.15625 170.79688 211.10938L169.76562 211.26562Q169.625 210.64062 169.25 210.32812Q168.875 210.0 168.34375 210.0Q167.54688 210.0 167.04688 210.57812Q166.54688 211.14062 166.54688 212.375Q166.54688 213.64062 167.03125 214.20312Q167.51562 214.76562 168.28125 214.76562Q168.90625 214.76562 169.3125 214.39062Q169.73438 214.01562 169.85938 213.21875ZM171.79688 215.5L171.79688 206.90625L172.84375 206.90625L172.84375 209.98438Q173.57812 209.14062 174.70312 209.14062Q175.40625 209.14062 175.90625 209.42188Q176.42188 209.6875 176.64062 210.17188Q176.85938 210.64062 176.85938 211.5625L176.85938 215.5L175.8125 215.5L175.8125 211.5625Q175.8125 210.76562 175.46875 210.40625Q175.125 210.04688 174.5 210.04688Q174.03125 210.04688 173.60938 210.29688Q173.20312 210.53125 173.01562 210.95312Q172.84375 211.35938 172.84375 212.09375L172.84375 215.5L171.79688 215.5ZM178.375 213.64062L179.40625 213.48438Q179.5 214.10938 179.89062 214.4375Q180.29688 214.76562 181.03125 214.76562Q181.75 214.76562 182.09375 214.48438Q182.45312 214.1875 182.45312 213.78125Q182.45312 213.42188 182.14062 213.21875Q181.92188 213.07812 181.0625 212.85938Q179.90625 212.5625 179.45312 212.35938Q179.01562 212.14062 178.78125 211.76562Q178.54688 211.39062 178.54688 210.92188Q178.54688 210.51562 178.73438 210.15625Q178.92188 209.79688 179.25 209.5625Q179.5 209.39062 179.92188 209.26562Q180.34375 209.14062 180.84375 209.14062Q181.5625 209.14062 182.10938 209.35938Q182.67188 209.5625 182.9375 209.92188Q183.20312 210.28125 183.29688 210.875L182.26562 211.01562Q182.20312 210.54688 181.85938 210.28125Q181.53125 210.0 180.90625 210.0Q180.1875 210.0 179.875 210.25Q179.5625 210.48438 179.5625 210.8125Q179.5625 211.01562 179.6875 211.17188Q179.82812 211.34375 180.09375 211.45312Q180.25 211.51562 181.03125 211.71875Q182.15625 212.03125 182.59375 212.21875Q183.03125 212.40625 183.28125 212.76562Q183.53125 213.125 183.53125 213.67188Q183.53125 214.20312 183.21875 214.67188Q182.92188 215.125 182.34375 215.39062Q181.76562 215.64062 181.03125 215.64062Q179.8125 215.64062 179.17188 215.14062Q178.54688 214.625 178.375 213.64062ZM188.40625 212.39062Q188.40625 210.65625 189.35938 209.82812Q190.15625 209.14062 191.3125 209.14062Q192.59375 209.14062 193.40625 209.98438Q194.23438 210.8125 194.23438 212.29688Q194.23438 213.5 193.875 214.1875Q193.51562 214.875 192.8125 215.26562Q192.125 215.64062 191.3125 215.64062Q190.01562 215.64062 189.20312 214.8125Q188.40625 213.96875 188.40625 212.39062ZM189.48438 212.39062Q189.48438 213.57812 190.0 214.17188Q190.53125 214.76562 191.3125 214.76562Q192.10938 214.76562 192.625 214.17188Q193.14062 213.57812 193.14062 212.35938Q193.14062 211.20312 192.60938 210.60938Q192.09375 210.01562 191.3125 210.01562Q190.53125 210.01562 190.0 210.60938Q189.48438 211.1875 189.48438 212.39062ZM196.04688 215.5L196.04688 210.09375L195.10938 210.09375L195.10938 209.28125L196.04688 209.28125L196.04688 208.60938Q196.04688 207.98438 196.15625 207.6875Q196.3125 207.26562 196.6875 207.01562Q197.07812 206.76562 197.76562 206.76562Q198.21875 206.76562 198.75 206.875L198.59375 207.78125Q198.26562 207.73438 197.96875 207.73438Q197.48438 207.73438 197.28125 207.9375Q197.09375 208.14062 197.09375 208.70312L197.09375 209.28125L198.3125 209.28125L198.3125 210.09375L197.09375 210.09375L197.09375 215.5L196.04688 215.5ZM201.79688 215.5L201.79688 206.90625L202.84375 206.90625L202.84375 209.98438Q203.57812 209.14062 204.70312 209.14062Q205.40625 209.14062 205.90625 209.42188Q206.42188 209.6875 206.64062 210.17188Q206.85938 210.64062 206.85938 211.5625L206.85938 215.5L205.8125 215.5L205.8125 211.5625Q205.8125 210.76562 205.46875 210.40625Q205.125 210.04688 204.5 210.04688Q204.03125 210.04688 203.60938 210.29688Q203.20312 210.53125 203.01562 210.95312Q202.84375 211.35938 202.84375 212.09375L202.84375 215.5L201.79688 215.5ZM208.79688 208.125L208.79688 206.90625L209.85938 206.90625L209.85938 208.125L208.79688 208.125ZM208.79688 215.5L208.79688 209.28125L209.85938 209.28125L209.85938 215.5L208.79688 215.5ZM211.59375 216.01562L212.625 216.17188Q212.6875 216.64062 212.98438 216.85938Q213.375 217.15625 214.04688 217.15625Q214.78125 217.15625 215.17188 216.85938Q215.57812 216.5625 215.71875 216.04688Q215.8125 215.71875 215.79688 214.6875Q215.10938 215.5 214.07812 215.5Q212.79688 215.5 212.09375 214.57812Q211.39062 213.64062 211.39062 212.35938Q211.39062 211.46875 211.70312 210.71875Q212.03125 209.95312 212.64062 209.54688Q213.25 209.14062 214.07812 209.14062Q215.1875 209.14062 215.90625 210.03125L215.90625 209.28125L216.875 209.28125L216.875 214.65625Q216.875 216.10938 216.57812 216.71875Q216.28125 217.32812 215.64062 217.67188Q215.0 218.03125 214.0625 218.03125Q212.95312 218.03125 212.26562 217.53125Q211.57812 217.03125 211.59375 216.01562ZM212.46875 212.28125Q212.46875 213.5 212.95312 214.0625Q213.4375 214.625 214.17188 214.625Q214.90625 214.625 215.39062 214.0625Q215.89062 213.5 215.89062 212.3125Q215.89062 211.17188 215.375 210.59375Q214.875 210.01562 214.15625 210.01562Q213.45312 210.01562 212.95312 210.59375Q212.46875 211.15625 212.46875 212.28125ZM218.79688 215.5L218.79688 206.90625L219.84375 206.90625L219.84375 209.98438Q220.57812 209.14062 221.70312 209.14062Q222.40625 209.14062 222.90625 209.42188Q223.42188 209.6875 223.64062 210.17188Q223.85938 210.64062 223.85938 211.5625L223.85938 215.5L222.8125 215.5L222.8125 211.5625Q222.8125 210.76562 222.46875 210.40625Q222.125 210.04688 221.5 210.04688Q221.03125 210.04688 220.60938 210.29688Q220.20312 210.53125 220.01562 210.95312Q219.84375 211.35938 219.84375 212.09375L219.84375 215.5L218.79688 215.5ZM232.76562 217.89062L232.76562 214.84375Q232.51562 215.1875 232.0625 215.42188Q231.625 215.64062 231.125 215.64062Q230.01562 215.64062 229.21875 214.76562Q228.42188 213.875 228.42188 212.32812Q228.42188 211.39062 228.75 210.65625Q229.07812 209.90625 229.6875 209.53125Q230.3125 209.14062 231.04688 209.14062Q232.20312 209.14062 232.85938 210.10938L232.85938 209.28125L233.8125 209.28125L233.8125 217.89062L232.76562 217.89062ZM229.5 212.375Q229.5 213.57812 230.0 214.17188Q230.51562 214.76562 231.21875 214.76562Q231.89062 214.76562 232.375 214.20312Q232.85938 213.625 232.85938 212.46875Q232.85938 211.21875 232.34375 210.59375Q231.84375 209.96875 231.14062 209.96875Q230.46875 209.96875 229.98438 210.5625Q229.5 211.14062 229.5 212.375ZM239.875 215.5L239.875 214.57812Q239.14062 215.64062 237.89062 215.64062Q237.34375 215.64062 236.85938 215.4375Q236.39062 215.21875 236.15625 214.90625Q235.92188 214.57812 235.82812 214.10938Q235.76562 213.8125 235.76562 213.125L235.76562 209.28125L236.82812 209.28125L236.82812 212.73438Q236.82812 213.54688 236.89062 213.84375Q236.98438 214.25 237.29688 214.5Q237.625 214.73438 238.10938 214.73438Q238.57812 214.73438 238.98438 214.5Q239.40625 214.25 239.57812 213.82812Q239.76562 213.40625 239.76562 212.60938L239.76562 209.28125L240.8125 209.28125L240.8125 215.5L239.875 215.5ZM246.85938 214.73438Q246.26562 215.23438 245.71875 215.4375Q245.1875 215.64062 244.5625 215.64062Q243.53125 215.64062 242.98438 215.14062Q242.4375 214.64062 242.4375 213.85938Q242.4375 213.40625 242.64062 213.03125Q242.84375 212.64062 243.1875 212.42188Q243.53125 212.1875 243.95312 212.07812Q244.25 211.98438 244.89062 211.90625Q246.15625 211.76562 246.76562 211.54688Q246.76562 211.32812 246.76562 211.28125Q246.76562 210.625 246.46875 210.35938Q246.0625 210.01562 245.26562 210.01562Q244.53125 210.01562 244.17188 210.28125Q243.8125 210.53125 243.64062 211.1875L242.60938 211.04688Q242.75 210.39062 243.07812 209.98438Q243.40625 209.57812 244.01562 209.35938Q244.625 209.14062 245.42188 209.14062Q246.21875 209.14062 246.71875 209.32812Q247.21875 209.51562 247.45312 209.79688Q247.6875 210.07812 247.78125 210.51562Q247.82812 210.78125 247.82812 211.48438L247.82812 212.89062Q247.82812 214.35938 247.89062 214.75Q247.96875 215.14062 248.17188 215.5L247.0625 215.5Q246.90625 215.17188 246.85938 214.73438ZM246.76562 212.375Q246.1875 212.60938 245.04688 212.78125Q244.39062 212.875 244.125 213.0Q243.85938 213.10938 243.70312 213.32812Q243.5625 213.54688 243.5625 213.82812Q243.5625 214.25 243.875 214.53125Q244.20312 214.8125 244.8125 214.8125Q245.42188 214.8125 245.89062 214.54688Q246.375 214.28125 246.59375 213.8125Q246.76562 213.45312 246.76562 212.76562L246.76562 212.375ZM249.76562 215.5L249.76562 206.90625L250.82812 206.90625L250.82812 215.5L249.76562 215.5ZM252.79688 208.125L252.79688 206.90625L253.85938 206.90625L253.85938 208.125L252.79688 208.125ZM252.79688 215.5L252.79688 209.28125L253.85938 209.28125L253.85938 215.5L252.79688 215.5ZM258.09375 214.5625L258.25 215.48438Q257.79688 215.57812 257.45312 215.57812Q256.875 215.57812 256.5625 215.40625Q256.25 215.21875 256.10938 214.92188Q255.98438 214.625 255.98438 213.67188L255.98438 210.09375L255.21875 210.09375L255.21875 209.28125L255.98438 209.28125L255.98438 207.73438L257.03125 207.10938L257.03125 209.28125L258.09375 209.28125L258.09375 210.09375L257.03125 210.09375L257.03125 213.73438Q257.03125 214.1875 257.07812 214.3125Q257.14062 214.4375 257.26562 214.51562Q257.39062 214.59375 257.625 214.59375Q257.8125 214.59375 258.09375 214.5625ZM258.75 217.89062L258.625 216.90625Q258.96875 217.0 259.23438 217.0Q259.57812 217.0 259.78125 216.875Q260.0 216.76562 260.14062 216.5625Q260.23438 216.39062 260.46875 215.76562Q260.48438 215.6875 260.5625 215.51562L258.1875 209.28125L259.32812 209.28125L260.625 212.875Q260.875 213.5625 261.07812 214.32812Q261.26562 213.59375 261.51562 212.90625L262.84375 209.28125L263.89062 209.28125L261.53125 215.60938Q261.14062 216.625 260.9375 217.01562Q260.65625 217.54688 260.28125 217.78125Q259.92188 218.03125 259.42188 218.03125Q259.125 218.03125 258.75 217.89062ZM270.82812 215.5L270.82812 214.71875Q270.23438 215.64062 269.09375 215.64062Q268.34375 215.64062 267.71875 215.23438Q267.09375 214.8125 266.75 214.07812Q266.40625 213.34375 266.40625 212.39062Q266.40625 211.46875 266.71875 210.70312Q267.03125 209.9375 267.65625 209.54688Q268.28125 209.14062 269.04688 209.14062Q269.60938 209.14062 270.04688 209.375Q270.48438 209.60938 270.76562 209.98438L270.76562 206.90625L271.8125 206.90625L271.8125 215.5L270.82812 215.5ZM267.5 212.39062Q267.5 213.59375 268.0 214.1875Q268.5 214.76562 269.1875 214.76562Q269.875 214.76562 270.35938 214.20312Q270.84375 213.64062 270.84375 212.48438Q270.84375 211.20312 270.34375 210.60938Q269.85938 210.01562 269.14062 210.01562Q268.4375 210.01562 267.96875 210.59375Q267.5 211.15625 267.5 212.39062ZM277.85938 214.73438Q277.26562 215.23438 276.71875 215.4375Q276.1875 215.64062 275.5625 215.64062Q274.53125 215.64062 273.98438 215.14062Q273.4375 214.64062 273.4375 213.85938Q273.4375 213.40625 273.64062 213.03125Q273.84375 212.64062 274.1875 212.42188Q274.53125 212.1875 274.95312 212.07812Q275.25 211.98438 275.89062 211.90625Q277.15625 211.76562 277.76562 211.54688Q277.76562 211.32812 277.76562 211.28125Q277.76562 210.625 277.46875 210.35938Q277.0625 210.01562 276.26562 210.01562Q275.53125 210.01562 275.17188 210.28125Q274.8125 210.53125 274.64062 211.1875L273.60938 211.04688Q273.75 210.39062 274.07812 209.98438Q274.40625 209.57812 275.01562 209.35938Q275.625 209.14062 276.42188 209.14062Q277.21875 209.14062 277.71875 209.32812Q278.21875 209.51562 278.45312 209.79688Q278.6875 210.07812 278.78125 210.51562Q278.82812 210.78125 278.82812 211.48438L278.82812 212.89062Q278.82812 214.35938 278.89062 214.75Q278.96875 215.14062 279.17188 215.5L278.0625 215.5Q277.90625 215.17188 277.85938 214.73438ZM277.76562 212.375Q277.1875 212.60938 276.04688 212.78125Q275.39062 212.875 275.125 213.0Q274.85938 213.10938 274.70312 213.32812Q274.5625 213.54688 274.5625 213.82812Q274.5625 214.25 274.875 214.53125Q275.20312 214.8125 275.8125 214.8125Q276.42188 214.8125 276.89062 214.54688Q277.375 214.28125 277.59375 213.8125Q277.76562 213.45312 277.76562 212.76562L277.76562 212.375ZM283.09375 214.5625L283.25 215.48438Q282.79688 215.57812 282.45312 215.57812Q281.875 215.57812 281.5625 215.40625Q281.25 215.21875 281.10938 214.92188Q280.98438 214.625 280.98438 213.67188L280.98438 210.09375L280.21875 210.09375L280.21875 209.28125L280.98438 209.28125L280.98438 207.73438L282.03125 207.10938L282.03125 209.28125L283.09375 209.28125L283.09375 210.09375L282.03125 210.09375L282.03125 213.73438Q282.03125 214.1875 282.07812 214.3125Q282.14062 214.4375 282.26562 214.51562Q282.39062 214.59375 282.625 214.59375Q282.8125 214.59375 283.09375 214.5625ZM287.85938 214.73438Q287.26562 215.23438 286.71875 215.4375Q286.1875 215.64062 285.5625 215.64062Q284.53125 215.64062 283.98438 215.14062Q283.4375 214.64062 283.4375 213.85938Q283.4375 213.40625 283.64062 213.03125Q283.84375 212.64062 284.1875 212.42188Q284.53125 212.1875 284.95312 212.07812Q285.25 211.98438 285.89062 211.90625Q287.15625 211.76562 287.76562 211.54688Q287.76562 211.32812 287.76562 211.28125Q287.76562 210.625 287.46875 210.35938Q287.0625 210.01562 286.26562 210.01562Q285.53125 210.01562 285.17188 210.28125Q284.8125 210.53125 284.64062 211.1875L283.60938 211.04688Q283.75 210.39062 284.07812 209.98438Q284.40625 209.57812 285.01562 209.35938Q285.625 209.14062 286.42188 209.14062Q287.21875 209.14062 287.71875 209.32812Q288.21875 209.51562 288.45312 209.79688Q288.6875 210.07812 288.78125 210.51562Q288.82812 210.78125 288.82812 211.48438L288.82812 212.89062Q288.82812 214.35938 288.89062 214.75Q288.96875 215.14062 289.17188 215.5L288.0625 215.5Q287.90625 215.17188 287.85938 214.73438ZM287.76562 212.375Q287.1875 212.60938 286.04688 212.78125Q285.39062 212.875 285.125 213.0Q284.85938 213.10938 284.70312 213.32812Q284.5625 213.54688 284.5625 213.82812Q284.5625 214.25 284.875 214.53125Q285.20312 214.8125 285.8125 214.8125Q286.42188 214.8125 286.89062 214.54688Q287.375 214.28125 287.59375 213.8125Q287.76562 213.45312 287.76562 212.76562L287.76562 212.375Z" fill-rule="nonzero"/><path fill="#000000" d="M22.5 115.109375L13.90625 115.109375L13.90625 113.390625L19.984375 111.359375Q20.84375 111.078125 21.265625 110.953125Q20.796875 110.8125 19.890625 110.5L13.90625 108.4375L13.90625 106.90625L22.5 106.90625L22.5 108.0L15.3125 108.0L22.5 110.5L22.5 111.53125L15.1875 114.015625L22.5 114.015625L22.5 115.109375ZM22.5 106.109375L13.90625 106.109375L13.90625 104.390625L19.984375 102.359375Q20.84375 102.078125 21.265625 101.953125Q20.796875 101.8125 19.890625 101.5L13.90625 99.4375L13.90625 97.90625L22.5 97.90625L22.5 99.0L15.3125 99.0L22.5 101.5L22.5 102.53125L15.1875 105.015625L22.5 105.015625L22.5 106.109375ZM22.5 97.125L13.90625 97.125L13.90625 95.984375L21.484375 95.984375L21.484375 91.75L22.5 91.75L22.5 97.125ZM13.90625 84.4375L13.90625 83.296875L18.875 83.296875Q20.171875 83.296875 20.9375 83.59375Q21.6875 83.890625 22.171875 84.65625Q22.640625 85.421875 22.640625 86.65625Q22.640625 87.859375 22.234375 88.640625Q21.8125 89.40625 21.03125 89.734375Q20.234375 90.0625 18.875 90.0625L13.90625 90.0625L13.90625 88.921875L18.859375 88.921875Q19.984375 88.921875 20.515625 88.71875Q21.046875 88.5 21.34375 88.0Q21.625 87.484375 21.625 86.75Q21.625 85.5 21.0625 84.96875Q20.484375 84.4375 18.859375 84.4375L13.90625 84.4375Z" fill-rule="nonzero"/><path fill="#000000" d="M47.375 170.5L47.375 168.4375L43.65625 168.4375L43.65625 167.46875L47.578125 161.90625L48.4375 161.90625L48.4375 167.46875L49.59375 167.46875L49.59375 168.4375L48.4375 168.4375L48.4375 170.5L47.375 170.5ZM47.375 167.46875L47.375 163.60938L44.6875 167.46875L47.375 167.46875ZM51.0 168.25L52.109375 168.15625Q52.234375 168.96875 52.671875 169.375Q53.125 169.78125 53.765625 169.78125Q54.515625 169.78125 55.046875 169.20312Q55.578125 168.625 55.578125 167.6875Q55.578125 166.78125 55.0625 166.26562Q54.5625 165.73438 53.734375 165.73438Q53.234375 165.73438 52.8125 165.96875Q52.40625 166.20312 52.171875 166.5625L51.1875 166.4375L52.015625 162.03125L56.296875 162.03125L56.296875 163.03125L52.859375 163.03125L52.40625 165.34375Q53.171875 164.79688 54.015625 164.79688Q55.140625 164.79688 55.90625 165.57812Q56.6875 166.35938 56.6875 167.59375Q56.6875 168.75 56.015625 169.60938Q55.1875 170.64062 53.765625 170.64062Q52.59375 170.64062 51.84375 169.98438Q51.109375 169.32812 51.0 168.25ZM58.59375 170.5L58.59375 169.29688L59.796875 169.29688L59.796875 170.5L58.59375 170.5ZM61.0 166.26562Q61.0 164.73438 61.3125 163.8125Q61.625 162.875 62.234375 162.375Q62.859375 161.875 63.796875 161.875Q64.484375 161.875 65.0 162.15625Q65.53125 162.4375 65.875 162.96875Q66.21875 163.48438 66.40625 164.23438Q66.59375 164.98438 66.59375 166.26562Q66.59375 167.78125 66.28125 168.70312Q65.984375 169.625 65.359375 170.14062Q64.75 170.64062 63.796875 170.64062Q62.5625 170.64062 61.84375 169.75Q61.0 168.6875 61.0 166.26562ZM62.078125 166.26562Q62.078125 168.375 62.578125 169.07812Q63.078125 169.78125 63.796875 169.78125Q64.53125 169.78125 65.015625 169.07812Q65.515625 168.375 65.515625 166.26562Q65.515625 164.14062 65.015625 163.45312Q64.53125 162.75 63.78125 162.75Q63.0625 162.75 62.625 163.35938Q62.078125 164.14062 62.078125 166.26562Z" fill-rule="nonzero"/><path fill="#000000" d="M44.0 118.916664L45.109375 118.822914Q45.234375 119.635414 45.671875 120.041664Q46.125 120.447914 46.765625 120.447914Q47.515625 120.447914 48.046875 119.86979Q48.578125 119.291664 48.578125 118.354164Q48.578125 117.447914 48.0625 116.93229Q47.5625 116.40104 46.734375 116.40104Q46.234375 116.40104 45.8125 116.635414Q45.40625 116.86979 45.171875 117.229164L44.1875 117.104164L45.015625 112.697914L49.296875 112.697914L49.296875 113.697914L45.859375 113.697914L45.40625 116.010414Q46.171875 115.46354 47.015625 115.46354Q48.140625 115.46354 48.90625 116.24479Q49.6875 117.02604 49.6875 118.260414Q49.6875 119.416664 49.015625 120.27604Q48.1875 121.30729 46.765625 121.30729Q45.59375 121.30729 44.84375 120.65104Q44.109375 119.99479 44.0 118.916664ZM51.0 116.93229Q51.0 115.40104 51.3125 114.479164Q51.625 113.541664 52.234375 113.041664Q52.859375 112.541664 53.796875 112.541664Q54.484375 112.541664 55.0 112.822914Q55.53125 113.104164 55.875 113.635414Q56.21875 114.15104 56.40625 114.90104Q56.59375 115.65104 56.59375 116.93229Q56.59375 118.447914 56.28125 119.36979Q55.984375 120.291664 55.359375 120.80729Q54.75 121.30729 53.796875 121.30729Q52.5625 121.30729 51.84375 120.416664Q51.0 119.354164 51.0 116.93229ZM52.078125 116.93229Q52.078125 119.041664 52.578125 119.74479Q53.078125 120.447914 53.796875 120.447914Q54.53125 120.447914 55.015625 119.74479Q55.515625 119.041664 55.515625 116.93229Q55.515625 114.80729 55.015625 114.11979Q54.53125 113.416664 53.78125 113.416664Q53.0625 113.416664 52.625 114.02604Q52.078125 114.80729 52.078125 116.93229ZM58.59375 121.166664L58.59375 119.96354L59.796875 119.96354L59.796875 121.166664L58.59375 121.166664ZM61.0 116.93229Q61.0 115.40104 61.3125 114.479164Q61.625 113.541664 62.234375 113.041664Q62.859375 112.541664 63.796875 112.541664Q64.484375 112.541664 65.0 112.822914Q65.53125 113.104164 65.875 113.635414Q66.21875 114.15104 66.40625 114.90104Q66.59375 115.65104 66.59375 116.93229Q66.59375 118.447914 66.28125 119.36979Q65.984375 120.291664 65.359375 120.80729Q64.75 121.30729 63.796875 121.30729Q62.5625 121.30729 61.84375 120.416664Q61.0 119.354164 61.0 116.93229ZM62.078125 116.93229Q62.078125 119.041664 62.578125 119.74479Q63.078125 120.447914 63.796875 120.447914Q64.53125 120.447914 65.015625 119.74479Q65.515625 119.041664 65.515625 116.93229Q65.515625 114.80729 65.015625 114.11979Q64.53125 113.416664 63.78125 113.416664Q63.0625 113.416664 62.625 114.02604Q62.078125 114.80729 62.078125 116.93229Z" fill-rule="nonzero"/><path fill="#000000" d="M44.0 69.583336L45.109375 69.489586Q45.234375 70.302086 45.671875 70.708336Q46.125 71.114586 46.765625 71.114586Q47.515625 71.114586 48.046875 70.53646Q48.578125 69.958336 48.578125 69.020836Q48.578125 68.114586 48.0625 67.59896Q47.5625 67.06771 46.734375 67.06771Q46.234375 67.06771 45.8125 67.302086Q45.40625 67.53646 45.171875 67.895836L44.1875 67.770836L45.015625 63.364586L49.296875 63.364586L49.296875 64.364586L45.859375 64.364586L45.40625 66.677086Q46.171875 66.13021 47.015625 66.13021Q48.140625 66.13021 48.90625 66.91146Q49.6875 67.69271 49.6875 68.927086Q49.6875 70.083336 49.015625 70.94271Q48.1875 71.97396 46.765625 71.97396Q45.59375 71.97396 44.84375 71.31771Q44.109375 70.66146 44.0 69.583336ZM51.0 69.583336L52.109375 69.489586Q52.234375 70.302086 52.671875 70.708336Q53.125 71.114586 53.765625 71.114586Q54.515625 71.114586 55.046875 70.53646Q55.578125 69.958336 55.578125 69.020836Q55.578125 68.114586 55.0625 67.59896Q54.5625 67.06771 53.734375 67.06771Q53.234375 67.06771 52.8125 67.302086Q52.40625 67.53646 52.171875 67.895836L51.1875 67.770836L52.015625 63.364586L56.296875 63.364586L56.296875 64.364586L52.859375 64.364586L52.40625 66.677086Q53.171875 66.13021 54.015625 66.13021Q55.140625 66.13021 55.90625 66.91146Q56.6875 67.69271 56.6875 68.927086Q56.6875 70.083336 56.015625 70.94271Q55.1875 71.97396 53.765625 71.97396Q52.59375 71.97396 51.84375 71.31771Q51.109375 70.66146 51.0 69.583336ZM58.59375 71.833336L58.59375 70.63021L59.796875 70.63021L59.796875 71.833336L58.59375 71.833336ZM61.0 67.59896Q61.0 66.06771 61.3125 65.145836Q61.625 64.208336 62.234375 63.708336Q62.859375 63.208336 63.796875 63.208336Q64.484375 63.208336 65.0 63.489586Q65.53125 63.770836 65.875 64.302086Q66.21875 64.81771 66.40625 65.56771Q66.59375 66.31771 66.59375 67.59896Q66.59375 69.114586 66.28125 70.03646Q65.984375 70.958336 65.359375 71.47396Q64.75 71.97396 63.796875 71.97396Q62.5625 71.97396 61.84375 71.083336Q61.0 70.020836 61.0 67.59896ZM62.078125 67.59896Q62.078125 69.708336 62.578125 70.41146Q63.078125 71.114586 63.796875 71.114586Q64.53125 71.114586 65.015625 70.41146Q65.515625 69.708336 65.515625 67.59896Q65.515625 65.47396 65.015625 64.78646Q64.53125 64.083336 63.78125 64.083336Q63.0625 64.083336 62.625 64.69271Q62.078125 65.47396 62.078125 67.59896Z" fill-rule="nonzero"/><path fill="#000000" d="M49.46875 16.015625L48.421875 16.09375Q48.28125 15.46875 48.03125 15.1875Q47.59375 14.734375 46.96875 14.734375Q46.46875 14.734375 46.078125 15.015625Q45.59375 15.390625 45.296875 16.09375Q45.015625 16.78125 45.0 18.0625Q45.375 17.484375 45.921875 17.203125Q46.484375 16.921875 47.09375 16.921875Q48.140625 16.921875 48.875 17.703125Q49.625 18.484375 49.625 19.703125Q49.625 20.515625 49.265625 21.21875Q48.921875 21.90625 48.3125 22.28125Q47.703125 22.640625 46.9375 22.640625Q45.609375 22.640625 44.78125 21.671875Q43.953125 20.703125 43.953125 18.484375Q43.953125 15.984375 44.875 14.859375Q45.671875 13.875 47.03125 13.875Q48.046875 13.875 48.6875 14.453125Q49.34375 15.015625 49.46875 16.015625ZM45.171875 19.71875Q45.171875 20.265625 45.390625 20.765625Q45.625 21.25 46.03125 21.515625Q46.453125 21.78125 46.921875 21.78125Q47.578125 21.78125 48.0625 21.25Q48.546875 20.703125 48.546875 19.78125Q48.546875 18.890625 48.0625 18.375Q47.59375 17.859375 46.875 17.859375Q46.15625 17.859375 45.65625 18.375Q45.171875 18.890625 45.171875 19.71875ZM51.0 18.265625Q51.0 16.734375 51.3125 15.8125Q51.625 14.875 52.234375 14.375Q52.859375 13.875 53.796875 13.875Q54.484375 13.875 55.0 14.15625Q55.53125 14.4375 55.875 14.96875Q56.21875 15.484375 56.40625 16.234375Q56.59375 16.984375 56.59375 18.265625Q56.59375 19.78125 56.28125 20.703125Q55.984375 21.625 55.359375 22.140625Q54.75 22.640625 53.796875 22.640625Q52.5625 22.640625 51.84375 21.75Q51.0 20.6875 51.0 18.265625ZM52.078125 18.265625Q52.078125 20.375 52.578125 21.078125Q53.078125 21.78125 53.796875 21.78125Q54.53125 21.78125 55.015625 21.078125Q55.515625 20.375 55.515625 18.265625Q55.515625 16.140625 55.015625 15.453125Q54.53125 14.75 53.78125 14.75Q53.0625 14.75 52.625 15.359375Q52.078125 16.140625 52.078125 18.265625ZM58.59375 22.5L58.59375 21.296875L59.796875 21.296875L59.796875 22.5L58.59375 22.5ZM61.0 18.265625Q61.0 16.734375 61.3125 15.8125Q61.625 14.875 62.234375 14.375Q62.859375 13.875 63.796875 13.875Q64.484375 13.875 65.0 14.15625Q65.53125 14.4375 65.875 14.96875Q66.21875 15.484375 66.40625 16.234375Q66.59375 16.984375 66.59375 18.265625Q66.59375 19.78125 66.28125 20.703125Q65.984375 21.625 65.359375 22.140625Q64.75 22.640625 63.796875 22.640625Q62.5625 22.640625 61.84375 21.75Q61.0 20.6875 61.0 18.265625ZM62.078125 18.265625Q62.078125 20.375 62.578125 21.078125Q63.078125 21.78125 63.796875 21.78125Q64.53125 21.78125 65.015625 21.078125Q65.515625 20.375 65.515625 18.265625Q65.515625 16.140625 65.015625 15.453125Q64.53125 14.75 63.78125 14.75Q63.0625 14.75 62.625 15.359375Q62.078125 16.140625 62.078125 18.265625Z" fill-rule="nonzero"/><path fill="#000000" d="M70.5 179.26562Q70.5 177.73438 70.8125 176.8125Q71.125 175.875 71.734375 175.375Q72.359375 174.875 73.296875 174.875Q73.984375 174.875 74.5 175.15625Q75.03125 175.4375 75.375 175.96875Q75.71875 176.48438 75.90625 177.23438Q76.09375 177.98438 76.09375 179.26562Q76.09375 180.78125 75.78125 181.70312Q75.484375 182.625 74.859375 183.14062Q74.25 183.64062 73.296875 183.64062Q72.0625 183.64062 71.34375 182.75Q70.5 181.6875 70.5 179.26562ZM71.578125 179.26562Q71.578125 181.375 72.078125 182.07812Q72.578125 182.78125 73.296875 182.78125Q74.03125 182.78125 74.515625 182.07812Q75.015625 181.375 75.015625 179.26562Q75.015625 177.14062 74.515625 176.45312Q74.03125 175.75 73.28125 175.75Q72.5625 175.75 72.125 176.35938Q71.578125 177.14062 71.578125 179.26562Z" fill-rule="nonzero"/><path fill="#000000" d="M106.24653 183.5L105.19965 183.5L105.19965 176.78125Q104.80903 177.14062 104.18403 177.51562Q103.57465 177.875 103.09028 178.04688L103.09028 177.03125Q103.96528 176.60938 104.62153 176.03125Q105.2934 175.4375 105.57465 174.875L106.24653 174.875L106.24653 183.5Z" fill-rule="nonzero"/><path fill="#000000" d="M139.60243 182.48438L139.60243 183.5L133.91493 183.5Q133.91493 183.125 134.03993 182.76562Q134.25868 182.1875 134.72743 181.625Q135.2118 181.0625 136.11806 180.32812Q137.5243 179.17188 138.00868 178.5Q138.50868 177.82812 138.50868 177.23438Q138.50868 176.60938 138.05556 176.1875Q137.60243 175.75 136.88368 175.75Q136.11806 175.75 135.66493 176.20312Q135.2118 176.65625 135.19618 177.46875L134.11806 177.35938Q134.22743 176.14062 134.94618 175.51562Q135.68056 174.875 136.91493 174.875Q138.1493 174.875 138.86806 175.5625Q139.5868 176.25 139.5868 177.26562Q139.5868 177.78125 139.36806 178.28125Q139.16493 178.76562 138.66493 179.32812Q138.18056 179.875 137.05556 180.82812Q136.10243 181.625 135.82118 181.92188Q135.55556 182.20312 135.38368 182.48438L139.60243 182.48438Z" fill-rule="nonzero"/><path fill="#000000" d="M165.83333 181.23438L166.89583 181.09375Q167.0677 181.98438 167.5052 182.39062Q167.9427 182.78125 168.5677 182.78125Q169.3177 182.78125 169.83333 182.26562Q170.34895 181.75 170.34895 180.98438Q170.34895 180.26562 169.86458 179.79688Q169.39583 179.3125 168.66145 179.3125Q168.36458 179.3125 167.91145 179.4375L168.03645 178.5Q168.14583 178.51562 168.20833 178.51562Q168.8802 178.51562 169.41145 178.17188Q169.95833 177.8125 169.95833 177.07812Q169.95833 176.5 169.5677 176.125Q169.17708 175.73438 168.55208 175.73438Q167.9427 175.73438 167.52083 176.125Q167.11458 176.51562 167.0052 177.28125L165.9427 177.09375Q166.1302 176.04688 166.8177 175.46875Q167.5052 174.875 168.52083 174.875Q169.22395 174.875 169.8177 175.1875Q170.41145 175.48438 170.72395 176.0Q171.03645 176.51562 171.03645 177.10938Q171.03645 177.65625 170.73958 178.125Q170.4427 178.57812 169.86458 178.84375Q170.61458 179.01562 171.03645 179.57812Q171.45833 180.125 171.45833 180.96875Q171.45833 182.09375 170.6302 182.875Q169.8177 183.65625 168.5677 183.65625Q167.4427 183.65625 166.6927 182.98438Q165.9427 182.29688 165.83333 181.23438Z" fill-rule="nonzero"/><path fill="#000000" d="M200.98611 183.5L200.98611 181.4375L197.26736 181.4375L197.26736 180.46875L201.18924 174.90625L202.04861 174.90625L202.04861 180.46875L203.20486 180.46875L203.20486 181.4375L202.04861 181.4375L202.04861 183.5L200.98611 183.5ZM200.98611 180.46875L200.98611 176.60938L198.29861 180.46875L200.98611 180.46875Z" fill-rule="nonzero"/><path fill="#000000" d="M229.38889 181.25L230.49826 181.15625Q230.62326 181.96875 231.06076 182.375Q231.51389 182.78125 232.15451 182.78125Q232.90451 182.78125 233.43576 182.20312Q233.96701 181.625 233.96701 180.6875Q233.96701 179.78125 233.45139 179.26562Q232.95139 178.73438 232.12326 178.73438Q231.62326 178.73438 231.20139 178.96875Q230.79514 179.20312 230.56076 179.5625L229.57639 179.4375L230.40451 175.03125L234.68576 175.03125L234.68576 176.03125L231.24826 176.03125L230.79514 178.34375Q231.56076 177.79688 232.40451 177.79688Q233.52951 177.79688 234.29514 178.57812Q235.07639 179.35938 235.07639 180.59375Q235.07639 181.75 234.40451 182.60938Q233.57639 183.64062 232.15451 183.64062Q230.98264 183.64062 230.23264 182.98438Q229.49826 182.32812 229.38889 181.25Z" fill-rule="nonzero"/><path fill="#000000" d="M266.6354 177.01562L265.58853 177.09375Q265.4479 176.46875 265.1979 176.1875Q264.7604 175.73438 264.1354 175.73438Q263.6354 175.73438 263.24478 176.01562Q262.7604 176.39062 262.46353 177.09375Q262.18228 177.78125 262.16666 179.0625Q262.54166 178.48438 263.08853 178.20312Q263.65103 177.92188 264.2604 177.92188Q265.30728 177.92188 266.04166 178.70312Q266.79166 179.48438 266.79166 180.70312Q266.79166 181.51562 266.43228 182.21875Q266.08853 182.90625 265.47916 183.28125Q264.86978 183.64062 264.10416 183.64062Q262.77603 183.64062 261.9479 182.67188Q261.11978 181.70312 261.11978 179.48438Q261.11978 176.98438 262.04166 175.85938Q262.83853 174.875 264.1979 174.875Q265.21353 174.875 265.85416 175.45312Q266.5104 176.01562 266.6354 177.01562ZM262.33853 180.71875Q262.33853 181.26562 262.55728 181.76562Q262.79166 182.25 263.1979 182.51562Q263.61978 182.78125 264.08853 182.78125Q264.74478 182.78125 265.22916 182.25Q265.71353 181.70312 265.71353 180.78125Q265.71353 179.89062 265.22916 179.375Q264.7604 178.85938 264.04166 178.85938Q263.3229 178.85938 262.8229 179.375Q262.33853 179.89062 262.33853 180.71875Z" fill-rule="nonzero"/><path fill="#000000" d="M293.00696 176.03125L293.00696 175.01562L298.56946 175.01562L298.56946 175.84375Q297.75696 176.71875 296.94446 178.17188Q296.14758 179.60938 295.71008 181.14062Q295.38196 182.21875 295.30383 183.5L294.21008 183.5Q294.2257 182.48438 294.6007 181.04688Q294.99133 179.60938 295.69446 178.28125Q296.4132 176.95312 297.2257 176.03125L293.00696 176.03125Z" fill-rule="nonzero"/><path fill="#000000" d="M326.34723 178.84375Q325.69098 178.59375 325.36285 178.15625Q325.05035 177.70312 325.05035 177.09375Q325.05035 176.15625 325.72223 175.51562Q326.40973 174.875 327.5191 174.875Q328.6441 174.875 329.3316 175.53125Q330.0191 176.1875 330.0191 177.125Q330.0191 177.71875 329.7066 178.15625Q329.3941 178.59375 328.75348 178.84375Q329.55035 179.09375 329.9566 179.67188Q330.36285 180.25 330.36285 181.04688Q330.36285 182.14062 329.5816 182.89062Q328.81598 183.64062 327.53473 183.64062Q326.2691 183.64062 325.48785 182.89062Q324.7066 182.14062 324.7066 181.01562Q324.7066 180.17188 325.12848 179.60938Q325.56598 179.04688 326.34723 178.84375ZM326.12848 177.04688Q326.12848 177.65625 326.5191 178.04688Q326.92535 178.4375 327.55035 178.4375Q328.15973 178.4375 328.55035 178.0625Q328.94098 177.67188 328.94098 177.10938Q328.94098 176.53125 328.53473 176.14062Q328.12848 175.73438 327.53473 175.73438Q326.92535 175.73438 326.5191 176.125Q326.12848 176.51562 326.12848 177.04688ZM325.80035 181.01562Q325.80035 181.46875 326.00348 181.89062Q326.22223 182.3125 326.6441 182.54688Q327.06598 182.78125 327.55035 182.78125Q328.30035 182.78125 328.78473 182.29688Q329.28473 181.8125 329.28473 181.0625Q329.28473 180.29688 328.78473 179.79688Q328.28473 179.29688 327.5191 179.29688Q326.7691 179.29688 326.28473 179.79688Q325.80035 180.28125 325.80035 181.01562Z" fill-rule="nonzero"/><path fill="#000000" d="M356.65625 181.51562L357.67188 181.42188Q357.79688 182.14062 358.15625 182.46875Q358.53125 182.78125 359.09375 182.78125Q359.57812 182.78125 359.9375 182.5625Q360.3125 182.32812 360.54688 181.96875Q360.78125 181.59375 360.9375 180.96875Q361.09375 180.32812 361.09375 179.67188Q361.09375 179.59375 361.09375 179.45312Q360.78125 179.95312 360.23438 180.28125Q359.6875 180.59375 359.04688 180.59375Q357.96875 180.59375 357.23438 179.82812Q356.5 179.04688 356.5 177.78125Q356.5 176.46875 357.26562 175.67188Q358.04688 174.875 359.20312 174.875Q360.03125 174.875 360.71875 175.32812Q361.42188 175.78125 361.78125 176.625Q362.14062 177.45312 362.14062 179.03125Q362.14062 180.67188 361.78125 181.65625Q361.4375 182.625 360.71875 183.14062Q360.01562 183.64062 359.07812 183.64062Q358.0625 183.64062 357.42188 183.09375Q356.78125 182.53125 356.65625 181.51562ZM360.96875 177.71875Q360.96875 176.8125 360.48438 176.28125Q360.01562 175.75 359.32812 175.75Q358.625 175.75 358.09375 176.32812Q357.57812 176.89062 357.57812 177.8125Q357.57812 178.625 358.07812 179.14062Q358.57812 179.65625 359.29688 179.65625Q360.03125 179.65625 360.5 179.14062Q360.96875 178.625 360.96875 177.71875Z" fill-rule="nonzero"/></svg>