<svg version="1.1" viewBox="0.0 0.0 566.0 331.0" fill="none" stroke="none" stroke-linecap="square" stroke-miterlimit="10" width="566" height="331" xmlns:xlink="http://www.w3.org/1999/xlink" xmlns="http://www.w3.org/2000/svg"><path fill="#ffffff" d="M0 0L566.0 0L566.0 331.0L0 331.0L0 0Z" fill-rule="nonzero"/><path fill="#cfe2f3" d="M283.0 16.55C353.70938 16.55 414.67386 66.26335 428.90298 135.52626C443.13208 204.78917 406.7038 274.51053 341.72116 302.38657L283.0 165.5Z" fill-rule="nonzero"/><path fill="#cccccc" d="M148.89424 100.6791C173.75986 49.23547 225.86205 16.55 283.0 16.55L283.0 165.5Z" fill-rule="nonzero"/><path fill="#000000" d="M147.45201 103.75175C147.92108 102.722084 148.40186 101.6978 148.89424 100.6791L283.0 165.5Z" fill-rule="nonzero"/><path fill="#f6b26b" d="M136.16837 140.46858C138.3291 127.79392 142.12184 115.452385 147.45201 103.75175L283.0 165.5Z" fill-rule="nonzero"/><path fill="#93c47d" d="M138.07071 199.87448C133.45207 180.4014 132.80507 160.19725 136.16837 140.46858L283.0 165.5Z" fill-rule="nonzero"/><path fill="#ffe599" d="M179.46172 272.57907C159.00226 252.79614 144.6386 227.56593 138.07071 199.87448L283.0 165.5Z" fill-rule="nonzero"/><path fill="#e06666" d="M341.72116 302.38657C286.56863 326.0457 222.6046 314.29535 179.46172 272.57907L283.0 165.5Z" fill-rule="nonzero"/><path fill="#000000" d="M16.9875 38.335155L18.675 38.178905Q18.83125 39.022655 19.284374 39.428905Q19.753124 39.81953 20.55 39.81953Q21.378124 39.81953 21.8 39.47578Q22.2375 39.116405 22.2375 38.63203Q22.2375 38.335155 22.05 38.116405Q21.878124 37.897655 21.425 37.741405Q21.128124 37.63203 20.05 37.366405Q18.64375 37.022655 18.08125 36.522655Q17.3 35.803905 17.3 34.78828Q17.3 34.13203 17.659374 33.56953Q18.034374 32.991405 18.7375 32.69453Q19.440624 32.397655 20.425 32.397655Q22.05 32.397655 22.8625 33.116405Q23.675 33.81953 23.721874 34.991405L21.9875 35.06953Q21.878124 34.41328 21.503124 34.13203Q21.14375 33.835155 20.409374 33.835155Q19.659374 33.835155 19.221874 34.147655Q18.95625 34.335155 18.95625 34.678905Q18.95625 34.97578 19.20625 35.19453Q19.534374 35.47578 20.8 35.772655Q22.065624 36.06953 22.675 36.397655Q23.284374 36.710155 23.628124 37.272655Q23.971874 37.81953 23.971874 38.63203Q23.971874 39.366405 23.55 40.022655Q23.14375 40.66328 22.39375 40.97578Q21.64375 41.28828 20.534374 41.28828Q18.89375 41.28828 18.01875 40.53828Q17.159374 39.772655 16.9875 38.335155ZM28.26875 34.91328L28.26875 36.22578L27.14375 36.22578L27.14375 38.72578Q27.14375 39.491405 27.175 39.616405Q27.20625 39.741405 27.315624 39.835155Q27.440624 39.91328 27.596874 39.91328Q27.83125 39.91328 28.253124 39.741405L28.39375 41.022655Q27.83125 41.272655 27.096874 41.272655Q26.659374 41.272655 26.3 41.13203Q25.940624 40.97578 25.76875 40.741405Q25.6125 40.491405 25.534374 40.10078Q25.4875 39.803905 25.4875 38.928905L25.4875 36.22578L24.7375 36.22578L24.7375 34.91328L25.4875 34.91328L25.4875 33.678905L27.14375 32.710155L27.14375 34.91328L28.26875 34.91328ZM30.64375 36.803905L29.14375 36.53828Q29.39375 35.63203 30.003124 35.210155Q30.628124 34.772655 31.846874 34.772655Q32.940624 34.772655 33.471874 35.03828Q34.01875 35.28828 34.2375 35.69453Q34.45625 36.085155 34.45625 37.16328L34.440624 39.085155Q34.440624 39.91328 34.51875 40.303905Q34.596874 40.678905 34.815624 41.13203L33.190624 41.13203Q33.128124 40.960155 33.034374 40.647655Q32.9875 40.491405 32.971874 40.44453Q32.55 40.866405 32.065624 41.06953Q31.596874 41.272655 31.05 41.272655Q30.08125 41.272655 29.51875 40.75703Q28.971874 40.22578 28.971874 39.428905Q28.971874 38.897655 29.221874 38.491405Q29.4875 38.085155 29.940624 37.866405Q30.39375 37.63203 31.253124 37.47578Q32.39375 37.25703 32.846874 37.06953L32.846874 36.91328Q32.846874 36.428905 32.6125 36.22578Q32.378124 36.022655 31.721874 36.022655Q31.284374 36.022655 31.034374 36.19453Q30.8 36.366405 30.64375 36.803905ZM32.846874 38.147655Q32.534374 38.241405 31.846874 38.397655Q31.159374 38.53828 30.940624 38.678905Q30.628124 38.91328 30.628124 39.25703Q30.628124 39.60078 30.878124 39.866405Q31.14375 40.116405 31.534374 40.116405Q31.9875 40.116405 32.39375 39.81953Q32.690624 39.60078 32.784374 39.272655Q32.846874 39.06953 32.846874 38.47578L32.846874 38.147655ZM37.9875 41.13203L36.346874 41.13203L36.346874 34.91328L37.878124 34.91328L37.878124 35.78828Q38.26875 35.16328 38.58125 34.97578Q38.89375 34.772655 39.284374 34.772655Q39.846874 34.772655 40.378124 35.085155L39.8625 36.50703Q39.440624 36.241405 39.096874 36.241405Q38.7375 36.241405 38.503124 36.44453Q38.26875 36.63203 38.128124 37.13203Q37.9875 37.616405 37.9875 39.210155L37.9875 41.13203ZM46.925 37.97578L48.596874 38.50703Q48.221874 39.91328 47.315624 40.60078Q46.409374 41.272655 45.034374 41.272655Q43.315624 41.272655 42.20625 40.116405Q41.1125 38.94453 41.1125 36.91328Q41.1125 34.772655 42.221874 33.585155Q43.33125 32.397655 45.14375 32.397655Q46.721874 32.397655 47.70625 33.31953Q48.284374 33.88203 48.58125 34.91328L46.8625 35.31953Q46.70625 34.647655 46.221874 34.272655Q45.7375 33.88203 45.05 33.88203Q44.096874 33.88203 43.503124 34.56953Q42.909374 35.241405 42.909374 36.78828Q42.909374 38.41328 43.4875 39.10078Q44.08125 39.78828 45.01875 39.78828Q45.70625 39.78828 46.20625 39.35078Q46.70625 38.91328 46.925 37.97578ZM49.034374 37.928905Q49.034374 37.116405 49.440624 36.35078Q49.846874 35.56953 50.58125 35.178905Q51.315624 34.772655 52.2375 34.772655Q53.64375 34.772655 54.55 35.69453Q55.45625 36.60078 55.45625 38.00703Q55.45625 39.41328 54.534374 40.35078Q53.628124 41.272655 52.253124 41.272655Q51.39375 41.272655 50.6125 40.88203Q49.846874 40.491405 49.440624 39.75703Q49.034374 39.00703 49.034374 37.928905ZM50.721874 38.022655Q50.721874 38.94453 51.159374 39.44453Q51.596874 39.928905 52.2375 39.928905Q52.89375 39.928905 53.315624 39.44453Q53.753124 38.94453 53.753124 38.00703Q53.753124 37.10078 53.315624 36.616405Q52.89375 36.116405 52.2375 36.116405Q51.596874 36.116405 51.159374 36.616405Q50.721874 37.10078 50.721874 38.022655ZM62.1125 41.13203L60.596874 41.13203L60.596874 40.210155Q60.20625 40.75703 59.690624 41.022655Q59.175 41.272655 58.64375 41.272655Q57.565624 41.272655 56.8 40.41328Q56.05 39.53828 56.05 37.991405Q56.05 36.41328 56.784374 35.60078Q57.534374 34.772655 58.675 34.772655Q59.70625 34.772655 60.471874 35.63203L60.471874 32.53828L62.1125 32.53828L62.1125 41.13203ZM57.721874 37.88203Q57.721874 38.88203 58.003124 39.31953Q58.39375 39.97578 59.1125 39.97578Q59.675 39.97578 60.065624 39.491405Q60.471874 39.00703 60.471874 38.03828Q60.471874 36.97578 60.08125 36.50703Q59.70625 36.022655 59.096874 36.022655Q58.51875 36.022655 58.1125 36.491405Q57.721874 36.960155 57.721874 37.88203ZM67.01875 39.147655L68.65938 39.428905Q68.34688 40.335155 67.65938 40.803905Q66.97188 41.272655 65.95625 41.272655Q64.33125 41.272655 63.55 40.210155Q62.925 39.366405 62.925 38.06953Q62.925 36.522655 63.7375 35.647655Q64.55 34.772655 65.78438 34.772655Q67.175 34.772655 67.97188 35.69453Q68.78438 36.60078 68.7375 38.491405L64.6125 38.491405Q64.64375 39.22578 65.01875 39.63203Q65.39375 40.03828 65.97188 40.03828Q66.34688 40.03828 66.6125 39.835155Q66.87813 39.616405 67.01875 39.147655ZM67.1125 37.491405Q67.09688 36.772655 66.7375 36.397655Q66.39375 36.022655 65.87813 36.022655Q65.34688 36.022655 64.9875 36.41328Q64.64375 36.81953 64.64375 37.491405L67.1125 37.491405ZM71.9875 41.13203L70.34688 41.13203L70.34688 34.91328L71.87813 34.91328L71.87813 35.78828Q72.26875 35.16328 72.58125 34.97578Q72.89375 34.772655 73.28438 34.772655Q73.84688 34.772655 74.37813 35.085155L73.8625 36.50703Q73.44063 36.241405 73.09688 36.241405Q72.7375 36.241405 72.50313 36.44453Q72.26875 36.63203 72.12813 37.13203Q71.9875 37.616405 71.9875 39.210155L71.9875 41.13203Z" fill-rule="nonzero"/><path fill="#9e9e9e" d="M21.26875 58.13203L19.628124 58.13203L19.628124 51.928905Q18.721874 52.772655 17.503124 53.178905L17.503124 51.678905Q18.14375 51.47578 18.89375 50.88203Q19.659374 50.28828 19.940624 49.50703L21.26875 49.50703L21.26875 58.13203ZM24.065624 51.19453L24.065624 49.66328L29.690624 49.66328L29.690624 50.85078Q28.9875 51.53828 28.26875 52.81953Q27.55 54.10078 27.175 55.553905Q26.8 56.991405 26.8 58.13203L25.221874 58.13203Q25.253124 56.35078 25.940624 54.50703Q26.64375 52.647655 27.8 51.19453L24.065624 51.19453ZM31.409374 58.13203L31.409374 56.491405L33.065624 56.491405L33.065624 58.13203L31.409374 58.13203ZM35.471874 53.491405Q34.83125 53.22578 34.534374 52.75703Q34.253124 52.28828 34.253124 51.72578Q34.253124 50.75703 34.925 50.13203Q35.596874 49.50703 36.83125 49.50703Q38.05 49.50703 38.721874 50.13203Q39.409374 50.75703 39.409374 51.72578Q39.409374 52.31953 39.096874 52.78828Q38.784374 53.25703 38.221874 53.491405Q38.940624 53.78828 39.315624 54.335155Q39.690624 54.88203 39.690624 55.60078Q39.690624 56.78828 38.925 57.53828Q38.175 58.28828 36.909374 58.28828Q35.7375 58.28828 34.95625 57.66328Q34.034374 56.94453 34.034374 55.678905Q34.034374 54.97578 34.378124 54.397655Q34.721874 53.81953 35.471874 53.491405ZM35.815624 51.835155Q35.815624 52.335155 36.08125 52.616405Q36.3625 52.88203 36.83125 52.88203Q37.3 52.88203 37.58125 52.60078Q37.8625 52.31953 37.8625 51.835155Q37.8625 51.366405 37.58125 51.10078Q37.3 50.81953 36.846874 50.81953Q36.378124 50.81953 36.096874 51.10078Q35.815624 51.38203 35.815624 51.835155ZM35.659374 55.522655Q35.659374 56.19453 36.003124 56.585155Q36.3625 56.960155 36.878124 56.960155Q37.39375 56.960155 37.721874 56.60078Q38.05 56.22578 38.05 55.53828Q38.05 54.928905 37.70625 54.56953Q37.378124 54.19453 36.8625 54.19453Q36.253124 54.19453 35.95625 54.616405Q35.659374 55.03828 35.659374 55.522655ZM41.065624 51.66328Q41.065624 50.50703 41.565624 49.960155Q42.08125 49.397655 42.95625 49.397655Q43.846874 49.397655 44.346874 49.960155Q44.8625 50.50703 44.8625 51.66328Q44.8625 52.81953 44.346874 53.38203Q43.846874 53.928905 42.9875 53.928905Q42.08125 53.928905 41.565624 53.38203Q41.065624 52.81953 41.065624 51.66328ZM42.3625 51.647655Q42.3625 52.491405 42.55 52.772655Q42.690624 52.991405 42.95625 52.991405Q43.221874 52.991405 43.3625 52.772655Q43.55 52.491405 43.55 51.647655Q43.55 50.81953 43.3625 50.53828Q43.221874 50.31953 42.95625 50.31953Q42.690624 50.31953 42.55 50.522655Q42.3625 50.81953 42.3625 51.647655ZM44.20625 58.460155L42.9875 58.460155L47.565624 49.397655L48.753124 49.397655L44.20625 58.460155ZM46.8625 56.210155Q46.8625 55.053905 47.3625 54.491405Q47.878124 53.928905 48.753124 53.928905Q49.64375 53.928905 50.14375 54.491405Q50.659374 55.053905 50.659374 56.210155Q50.659374 57.366405 50.14375 57.928905Q49.64375 58.47578 48.784374 58.47578Q47.878124 58.47578 47.3625 57.928905Q46.8625 57.366405 46.8625 56.210155ZM48.14375 56.19453Q48.14375 57.03828 48.346874 57.31953Q48.4875 57.53828 48.753124 57.53828Q49.01875 57.53828 49.159374 57.31953Q49.346874 57.03828 49.346874 56.19453Q49.346874 55.366405 49.159374 55.06953Q49.01875 54.866405 48.753124 54.866405Q48.4875 54.866405 48.346874 55.06953Q48.14375 55.366405 48.14375 56.19453Z" fill-rule="nonzero"/><path stroke="#757575" stroke-width="1.0" stroke-linecap="butt" d="M16.55 45.63203L128.05 45.63203L207.80275 45.63203" fill-rule="nonzero"/><path fill="#9e9e9e" d="M209.80275 45.63203C209.80275 44.52746 208.90732 43.63203 207.80275 43.63203C206.69818 43.63203 205.80275 44.52746 205.80275 45.63203C205.80275 46.7366 206.69818 47.63203 207.80275 47.63203C208.90732 47.63203 209.80275 46.7366 209.80275 45.63203" fill-rule="nonzero"/><path fill="#000000" d="M18.64375 90.32608L17.14375 90.060455Q17.39375 89.154205 18.003124 88.73233Q18.628124 88.29483 19.846874 88.29483Q20.940624 88.29483 21.471874 88.560455Q22.01875 88.810455 22.2375 89.216705Q22.45625 89.60733 22.45625 90.685455L22.440624 92.60733Q22.440624 93.435455 22.51875 93.82608Q22.596874 94.20108 22.815624 94.654205L21.190624 94.654205Q21.128124 94.48233 21.034374 94.16983Q20.9875 94.01358 20.971874 93.966705Q20.55 94.38858 20.065624 94.591705Q19.596874 94.79483 19.05 94.79483Q18.08125 94.79483 17.51875 94.279205Q16.971874 93.747955 16.971874 92.95108Q16.971874 92.41983 17.221874 92.01358Q17.4875 91.60733 17.940624 91.38858Q18.39375 91.154205 19.253124 90.997955Q20.39375 90.779205 20.846874 90.591705L20.846874 90.435455Q20.846874 89.95108 20.6125 89.747955Q20.378124 89.54483 19.721874 89.54483Q19.284374 89.54483 19.034374 89.716705Q18.8 89.88858 18.64375 90.32608ZM20.846874 91.66983Q20.534374 91.76358 19.846874 91.91983Q19.159374 92.060455 18.940624 92.20108Q18.628124 92.435455 18.628124 92.779205Q18.628124 93.122955 18.878124 93.38858Q19.14375 93.63858 19.534374 93.63858Q19.9875 93.63858 20.39375 93.341705Q20.690624 93.122955 20.784374 92.79483Q20.846874 92.591705 20.846874 91.997955L20.846874 91.66983ZM25.9875 94.654205L24.346874 94.654205L24.346874 88.435455L25.878124 88.435455L25.878124 89.310455Q26.26875 88.685455 26.58125 88.497955Q26.89375 88.29483 27.284374 88.29483Q27.846874 88.29483 28.378124 88.60733L27.8625 90.029205Q27.440624 89.76358 27.096874 89.76358Q26.7375 89.76358 26.503124 89.966705Q26.26875 90.154205 26.128124 90.654205Q25.9875 91.13858 25.9875 92.73233L25.9875 94.654205ZM28.55 94.654205L31.4875 90.16983L28.83125 86.060455L30.846874 86.060455L32.58125 88.82608L34.26875 86.060455L36.26875 86.060455L33.596874 90.23233L36.534374 94.654205L34.440624 94.654205L32.534374 91.685455L30.628124 94.654205L28.55 94.654205ZM37.409374 87.591705L37.409374 86.060455L39.065624 86.060455L39.065624 87.591705L37.409374 87.591705ZM37.409374 94.654205L37.409374 88.435455L39.065624 88.435455L39.065624 94.654205L37.409374 94.654205ZM42.128124 94.654205L39.6125 88.435455L41.346874 88.435455L42.51875 91.60733L42.8625 92.66983Q42.9875 92.26358 43.01875 92.13858Q43.1125 91.872955 43.20625 91.60733L44.378124 88.435455L46.08125 88.435455L43.6125 94.654205L42.128124 94.654205Z" fill-rule="nonzero"/><path fill="#9e9e9e" d="M19.846874 103.029205Q21.096874 103.029205 21.8 103.91983Q22.628124 104.966705 22.628124 107.41983Q22.628124 109.85733 21.784374 110.91983Q21.096874 111.79483 19.846874 111.79483Q18.596874 111.79483 17.815624 110.841705Q17.05 109.872955 17.05 107.404205Q17.05 104.966705 17.89375 103.904205Q18.596874 103.029205 19.846874 103.029205ZM19.846874 104.38858Q19.55 104.38858 19.315624 104.591705Q19.08125 104.779205 18.940624 105.26358Q18.784374 105.904205 18.784374 107.41983Q18.784374 108.935455 18.925 109.497955Q19.08125 110.060455 19.315624 110.247955Q19.55 110.435455 19.846874 110.435455Q20.14375 110.435455 20.378124 110.247955Q20.6125 110.060455 20.7375 109.560455Q20.909374 108.935455 20.909374 107.41983Q20.909374 105.904205 20.753124 105.341705Q20.6125 104.779205 20.378124 104.591705Q20.14375 104.38858 19.846874 104.38858ZM24.409374 111.654205L24.409374 110.01358L26.065624 110.01358L26.065624 111.654205L24.409374 111.654205ZM30.284374 111.654205L30.284374 109.91983L26.76875 109.91983L26.76875 108.48233L30.503124 103.029205L31.878124 103.029205L31.878124 108.48233L32.95625 108.48233L32.95625 109.91983L31.878124 109.91983L31.878124 111.654205L30.284374 111.654205ZM30.284374 108.48233L30.284374 105.54483L28.315624 108.48233L30.284374 108.48233ZM34.065624 105.185455Q34.065624 104.029205 34.565624 103.48233Q35.08125 102.91983 35.95625 102.91983Q36.846874 102.91983 37.346874 103.48233Q37.8625 104.029205 37.8625 105.185455Q37.8625 106.341705 37.346874 106.904205Q36.846874 107.45108 35.9875 107.45108Q35.08125 107.45108 34.565624 106.904205Q34.065624 106.341705 34.065624 105.185455ZM35.3625 105.16983Q35.3625 106.01358 35.55 106.29483Q35.690624 106.51358 35.95625 106.51358Q36.221874 106.51358 36.3625 106.29483Q36.55 106.01358 36.55 105.16983Q36.55 104.341705 36.3625 104.060455Q36.221874 103.841705 35.95625 103.841705Q35.690624 103.841705 35.55 104.04483Q35.3625 104.341705 35.3625 105.16983ZM37.20625 111.98233L35.9875 111.98233L40.565624 102.91983L41.753124 102.91983L37.20625 111.98233ZM39.8625 109.73233Q39.8625 108.57608 40.3625 108.01358Q40.878124 107.45108 41.753124 107.45108Q42.64375 107.45108 43.14375 108.01358Q43.659374 108.57608 43.659374 109.73233Q43.659374 110.88858 43.14375 111.45108Q42.64375 111.997955 41.784374 111.997955Q40.878124 111.997955 40.3625 111.45108Q39.8625 110.88858 39.8625 109.73233ZM41.14375 109.716705Q41.14375 110.560455 41.346874 110.841705Q41.4875 111.060455 41.753124 111.060455Q42.01875 111.060455 42.159374 110.841705Q42.346874 110.560455 42.346874 109.716705Q42.346874 108.88858 42.159374 108.591705Q42.01875 108.38858 41.753124 108.38858Q41.4875 108.38858 41.346874 108.591705Q41.14375 108.88858 41.14375 109.716705Z" fill-rule="nonzero"/><path stroke="#757575" stroke-width="1.0" stroke-linecap="butt" d="M16.55 99.154205L128.05 99.154205L154.90616 105.37575" fill-rule="nonzero"/><path fill="#9e9e9e" d="M156.90616 105.37575C156.90616 104.27118 156.01073 103.37575 154.90616 103.37575C153.80159 103.37575 152.90616 104.27118 152.90616 105.37575C152.90616 106.480316 153.80159 107.37575 154.90616 107.37575C156.01073 107.37575 156.90616 106.480316 156.90616 105.37575" fill-rule="nonzero"/><path fill="#000000" d="M17.3625 119.435455L18.89375 119.435455L18.89375 120.341705Q19.20625 119.872955 19.70625 119.591705Q20.221874 119.29483 20.846874 119.29483Q21.925 119.29483 22.675 120.13858Q23.440624 120.98233 23.440624 122.51358Q23.440624 124.060455 22.675 124.935455Q21.909374 125.79483 20.83125 125.79483Q20.315624 125.79483 19.89375 125.591705Q19.471874 125.38858 19.01875 124.88858L19.01875 128.0292L17.3625 128.0292L17.3625 119.435455ZM18.9875 122.435455Q18.9875 123.48233 19.409374 123.98233Q19.83125 124.48233 20.425 124.48233Q21.003124 124.48233 21.378124 124.029205Q21.753124 123.560455 21.753124 122.51358Q21.753124 121.54483 21.3625 121.07608Q20.971874 120.591705 20.39375 120.591705Q19.784374 120.591705 19.378124 121.060455Q18.9875 121.529205 18.9875 122.435455ZM28.01875 123.66983L29.659374 123.95108Q29.346874 124.85733 28.659374 125.32608Q27.971874 125.79483 26.95625 125.79483Q25.33125 125.79483 24.55 124.73233Q23.925 123.88858 23.925 122.591705Q23.925 121.04483 24.7375 120.16983Q25.55 119.29483 26.784374 119.29483Q28.175 119.29483 28.971874 120.216705Q29.784374 121.122955 29.7375 123.01358L25.6125 123.01358Q25.64375 123.747955 26.01875 124.154205Q26.39375 124.560455 26.971874 124.560455Q27.346874 124.560455 27.6125 124.35733Q27.878124 124.13858 28.01875 123.66983ZM28.1125 122.01358Q28.096874 121.29483 27.7375 120.91983Q27.39375 120.54483 26.878124 120.54483Q26.346874 120.54483 25.9875 120.935455Q25.64375 121.341705 25.64375 122.01358L28.1125 122.01358ZM30.9875 122.85733L32.675 122.70108Q32.83125 123.54483 33.284374 123.95108Q33.753124 124.341705 34.55 124.341705Q35.378124 124.341705 35.8 123.997955Q36.2375 123.63858 36.2375 123.154205Q36.2375 122.85733 36.05 122.63858Q35.878124 122.41983 35.425 122.26358Q35.128124 122.154205 34.05 121.88858Q32.64375 121.54483 32.08125 121.04483Q31.3 120.32608 31.3 119.310455Q31.3 118.654205 31.659374 118.091705Q32.034374 117.51358 32.7375 117.216705Q33.440624 116.91983 34.425 116.91983Q36.05 116.91983 36.8625 117.63858Q37.675 118.341705 37.721874 119.51358L35.9875 119.591705Q35.878124 118.935455 35.503124 118.654205Q35.14375 118.35733 34.409374 118.35733Q33.659374 118.35733 33.221874 118.66983Q32.95625 118.85733 32.95625 119.20108Q32.95625 119.497955 33.20625 119.716705Q33.534374 119.997955 34.8 120.29483Q36.065624 120.591705 36.675 120.91983Q37.284374 121.23233 37.628124 121.79483Q37.971874 122.341705 37.971874 123.154205Q37.971874 123.88858 37.55 124.54483Q37.14375 125.185455 36.39375 125.497955Q35.64375 125.810455 34.534374 125.810455Q32.89375 125.810455 32.01875 125.060455Q31.159374 124.29483 30.9875 122.85733ZM44.628124 124.122955L44.628124 125.654205L38.846874 125.654205Q38.940624 124.779205 39.409374 124.01358Q39.878124 123.23233 41.26875 121.95108Q42.378124 120.91983 42.628124 120.54483Q42.971874 120.029205 42.971874 119.529205Q42.971874 118.98233 42.675 118.685455Q42.378124 118.38858 41.8625 118.38858Q41.346874 118.38858 41.034374 118.70108Q40.7375 119.01358 40.690624 119.73233L39.05 119.57608Q39.190624 118.216705 39.95625 117.622955Q40.7375 117.029205 41.89375 117.029205Q43.175 117.029205 43.89375 117.716705Q44.628124 118.404205 44.628124 119.41983Q44.628124 119.997955 44.409374 120.529205Q44.20625 121.04483 43.753124 121.622955Q43.45625 121.997955 42.675 122.716705Q41.89375 123.435455 41.690624 123.66983Q41.4875 123.904205 41.346874 124.122955L44.628124 124.122955ZM46.034374 122.45108Q46.034374 121.63858 46.440624 120.872955Q46.846874 120.091705 47.58125 119.70108Q48.315624 119.29483 49.2375 119.29483Q50.64375 119.29483 51.55 120.216705Q52.45625 121.122955 52.45625 122.529205Q52.45625 123.935455 51.534374 124.872955Q50.628124 125.79483 49.253124 125.79483Q48.39375 125.79483 47.6125 125.404205Q46.846874 125.01358 46.440624 124.279205Q46.034374 123.529205 46.034374 122.45108ZM47.721874 122.54483Q47.721874 123.466705 48.159374 123.966705Q48.596874 124.45108 49.2375 124.45108Q49.89375 124.45108 50.315624 123.966705Q50.753124 123.466705 50.753124 122.529205Q50.753124 121.622955 50.315624 121.13858Q49.89375 120.63858 49.2375 120.63858Q48.596874 120.63858 48.159374 121.13858Q47.721874 121.622955 47.721874 122.54483Z" fill-rule="nonzero"/><path fill="#9e9e9e" d="M20.284374 142.6542L20.284374 140.91983L16.76875 140.91983L16.76875 139.48233L20.503124 134.0292L21.878124 134.0292L21.878124 139.48233L22.95625 139.48233L22.95625 140.91983L21.878124 140.91983L21.878124 142.6542L20.284374 142.6542ZM20.284374 139.48233L20.284374 136.54483L18.315624 139.48233L20.284374 139.48233ZM24.409374 142.6542L24.409374 141.01358L26.065624 141.01358L26.065624 142.6542L24.409374 142.6542ZM31.26875 142.6542L29.628124 142.6542L29.628124 136.45108Q28.721874 137.29483 27.503124 137.70108L27.503124 136.20108Q28.14375 135.99796 28.89375 135.4042Q29.659374 134.81046 29.940624 134.0292L31.26875 134.0292L31.26875 142.6542ZM34.065624 136.18546Q34.065624 135.0292 34.565624 134.48233Q35.08125 133.91983 35.95625 133.91983Q36.846874 133.91983 37.346874 134.48233Q37.8625 135.0292 37.8625 136.18546Q37.8625 137.3417 37.346874 137.9042Q36.846874 138.45108 35.9875 138.45108Q35.08125 138.45108 34.565624 137.9042Q34.065624 137.3417 34.065624 136.18546ZM35.3625 136.16983Q35.3625 137.01358 35.55 137.29483Q35.690624 137.51358 35.95625 137.51358Q36.221874 137.51358 36.3625 137.29483Q36.55 137.01358 36.55 136.16983Q36.55 135.3417 36.3625 135.06046Q36.221874 134.8417 35.95625 134.8417Q35.690624 134.8417 35.55 135.04483Q35.3625 135.3417 35.3625 136.16983ZM37.20625 142.98233L35.9875 142.98233L40.565624 133.91983L41.753124 133.91983L37.20625 142.98233ZM39.8625 140.73233Q39.8625 139.57608 40.3625 139.01358Q40.878124 138.45108 41.753124 138.45108Q42.64375 138.45108 43.14375 139.01358Q43.659374 139.57608 43.659374 140.73233Q43.659374 141.88858 43.14375 142.45108Q42.64375 142.99796 41.784374 142.99796Q40.878124 142.99796 40.3625 142.45108Q39.8625 141.88858 39.8625 140.73233ZM41.14375 140.7167Q41.14375 141.56046 41.346874 141.8417Q41.4875 142.06046 41.753124 142.06046Q42.01875 142.06046 42.159374 141.8417Q42.346874 141.56046 42.346874 140.7167Q42.346874 139.88858 42.159374 139.5917Q42.01875 139.38858 41.753124 139.38858Q41.4875 139.38858 41.346874 139.5917Q41.14375 139.88858 41.14375 140.7167Z" fill-rule="nonzero"/><path stroke="#757575" stroke-width="1.0" stroke-linecap="butt" d="M16.55 130.1542L128.05 130.1542L147.74057 123.93266" fill-rule="nonzero"/><path fill="#9e9e9e" d="M149.74057 123.93266C149.74057 122.82809 148.84514 121.93266 147.74057 121.93266C146.636 121.93266 145.74057 122.82809 145.74057 123.93266C145.74057 125.03723 146.636 125.93266 147.74057 125.93266C148.84514 125.93266 149.74057 125.03723 149.74057 123.93266" fill-rule="nonzero"/><path fill="#000000" d="M17.425 165.529L17.425 156.93526L20.20625 156.93526Q21.784374 156.93526 22.26875 157.06026Q23.003124 157.26338 23.503124 157.91963Q24.003124 158.56026 24.003124 159.57588Q24.003124 160.37276 23.70625 160.91963Q23.425 161.45088 22.9875 161.76338Q22.55 162.06026 22.08125 162.16963Q21.471874 162.29463 20.284374 162.29463L19.159374 162.29463L19.159374 165.529L17.425 165.529ZM19.159374 158.38838L19.159374 160.82588L20.1125 160.82588Q21.128124 160.82588 21.471874 160.70088Q21.83125 160.56026 22.01875 160.279Q22.221874 159.98213 22.221874 159.60713Q22.221874 159.13838 21.940624 158.8415Q21.659374 158.529 21.2375 158.45088Q20.940624 158.38838 20.003124 158.38838L19.159374 158.38838ZM25.409374 158.4665L25.409374 156.93526L27.065624 156.93526L27.065624 158.4665L25.409374 158.4665ZM25.409374 165.529L25.409374 159.31026L27.065624 159.31026L27.065624 165.529L25.409374 165.529ZM28.409374 165.529L28.409374 156.93526L30.065624 156.93526L30.065624 165.529L28.409374 165.529ZM35.01875 163.54463L36.659374 163.82588Q36.346874 164.73213 35.659374 165.20088Q34.971874 165.66963 33.95625 165.66963Q32.33125 165.66963 31.55 164.60713Q30.925 163.76338 30.925 162.4665Q30.925 160.91963 31.7375 160.04463Q32.55 159.16963 33.784374 159.16963Q35.175 159.16963 35.971874 160.0915Q36.784374 160.99776 36.7375 162.88838L32.6125 162.88838Q32.64375 163.62276 33.01875 164.029Q33.39375 164.43526 33.971874 164.43526Q34.346874 164.43526 34.6125 164.23213Q34.878124 164.01338 35.01875 163.54463ZM35.1125 161.88838Q35.096874 161.16963 34.7375 160.79463Q34.39375 160.41963 33.878124 160.41963Q33.346874 160.41963 32.9875 160.81026Q32.64375 161.2165 32.64375 161.88838L35.1125 161.88838ZM38.221874 163.23213L38.221874 161.5915L41.45625 161.5915L41.45625 163.23213L38.221874 163.23213ZM42.409374 156.93526L44.14375 156.93526L44.14375 161.5915Q44.14375 162.70088 44.20625 163.029Q44.315624 163.56026 44.7375 163.87276Q45.159374 164.18526 45.89375 164.18526Q46.628124 164.18526 47.003124 163.88838Q47.378124 163.5915 47.45625 163.154Q47.534374 162.7165 47.534374 161.68526L47.534374 156.93526L49.26875 156.93526L49.26875 161.45088Q49.26875 162.99776 49.128124 163.63838Q48.9875 164.279 48.596874 164.7165Q48.221874 165.154 47.58125 165.41963Q46.95625 165.66963 45.940624 165.66963Q44.70625 165.66963 44.065624 165.38838Q43.440624 165.10713 43.065624 164.654Q42.70625 164.20088 42.58125 163.70088Q42.409374 162.9665 42.409374 161.51338L42.409374 156.93526ZM56.065624 165.529L54.425 165.529L54.425 162.35713Q54.425 161.3415 54.315624 161.04463Q54.221874 160.74776 53.971874 160.5915Q53.7375 160.41963 53.409374 160.41963Q52.971874 160.41963 52.628124 160.654Q52.3 160.88838 52.175 161.279Q52.05 161.66963 52.05 162.7165L52.05 165.529L50.39375 165.529L50.39375 159.31026L51.925 159.31026L51.925 160.2165Q52.7375 159.16963 53.9875 159.16963Q54.51875 159.16963 54.971874 159.37276Q55.425 159.56026 55.659374 159.87276Q55.89375 160.16963 55.971874 160.56026Q56.065624 160.93526 56.065624 161.654L56.065624 165.529ZM62.83125 161.13838L61.221874 161.43526Q61.128124 160.95088 60.83125 160.7165Q60.55 160.4665 60.096874 160.4665Q59.471874 160.4665 59.096874 160.88838Q58.7375 161.31026 58.7375 162.31026Q58.7375 163.41963 59.1125 163.87276Q59.4875 164.32588 60.1125 164.32588Q60.58125 164.32588 60.878124 164.06026Q61.175 163.79463 61.3 163.13838L62.925 163.41963Q62.675 164.529 61.95625 165.10713Q61.2375 165.66963 60.034374 165.66963Q58.675 165.66963 57.8625 164.81026Q57.05 163.95088 57.05 162.41963Q57.05 160.88838 57.8625 160.029Q58.675 159.16963 60.065624 159.16963Q61.20625 159.16963 61.878124 159.654Q62.55 160.13838 62.83125 161.13838ZM64.03438 162.32588Q64.03438 161.51338 64.44063 160.74776Q64.84688 159.9665 65.58125 159.57588Q66.31563 159.16963 67.2375 159.16963Q68.64375 159.16963 69.55 160.0915Q70.45625 160.99776 70.45625 162.404Q70.45625 163.81026 69.53438 164.74776Q68.62813 165.66963 67.25313 165.66963Q66.39375 165.66963 65.6125 165.279Q64.84688 164.88838 64.44063 164.154Q64.03438 163.404 64.03438 162.32588ZM65.72188 162.41963Q65.72188 163.3415 66.15938 163.8415Q66.59688 164.32588 67.2375 164.32588Q67.89375 164.32588 68.31563 163.8415Q68.75313 163.3415 68.75313 162.404Q68.75313 161.49776 68.31563 161.01338Q67.89375 160.51338 67.2375 160.51338Q66.59688 160.51338 66.15938 161.01338Q65.72188 161.49776 65.72188 162.41963ZM71.3625 159.31026L72.89375 159.31026L72.89375 160.2165Q73.20625 159.74776 73.70625 159.4665Q74.22188 159.16963 74.84688 159.16963Q75.925 159.16963 76.675 160.01338Q77.44063 160.85713 77.44063 162.38838Q77.44063 163.93526 76.675 164.81026Q75.90938 165.66963 74.83125 165.66963Q74.31563 165.66963 73.89375 165.4665Q73.47188 165.26338 73.01875 164.76338L73.01875 167.904L71.3625 167.904L71.3625 159.31026ZM72.9875 162.31026Q72.9875 163.35713 73.40938 163.85713Q73.83125 164.35713 74.425 164.35713Q75.00313 164.35713 75.37813 163.904Q75.75313 163.43526 75.75313 162.38838Q75.75313 161.41963 75.3625 160.95088Q74.97188 160.4665 74.39375 160.4665Q73.78438 160.4665 73.37813 160.93526Q72.9875 161.404 72.9875 162.31026ZM77.62813 159.31026L79.37813 159.31026L80.87813 163.7165L82.33125 159.31026L84.03438 159.31026L81.83125 165.29463L81.44063 166.37276Q81.22188 166.91963 81.01875 167.20088Q80.83125 167.49776 80.56563 167.66963Q80.31563 167.85713 79.94063 167.95088Q79.58125 168.06026 79.1125 168.06026Q78.62813 168.06026 78.175 167.95088L78.03438 166.66963Q78.425 166.74776 78.72188 166.74776Q79.3 166.74776 79.56563 166.404Q79.84688 166.07588 80.00313 165.54463L77.62813 159.31026ZM85.9875 165.529L84.34688 165.529L84.34688 159.31026L85.87813 159.31026L85.87813 160.18526Q86.26875 159.56026 86.58125 159.37276Q86.89375 159.16963 87.28438 159.16963Q87.84688 159.16963 88.37813 159.48213L87.8625 160.904Q87.44063 160.63838 87.09688 160.63838Q86.7375 160.63838 86.50313 160.8415Q86.26875 161.029 86.12813 161.529Q85.9875 162.01338 85.9875 163.60713L85.9875 165.529ZM89.40938 158.4665L89.40938 156.93526L91.06563 156.93526L91.06563 158.4665L89.40938 158.4665ZM89.40938 165.529L89.40938 159.31026L91.06563 159.31026L91.06563 165.529L89.40938 165.529ZM92.25313 165.93526L94.14375 166.16963Q94.19063 166.49776 94.3625 166.62276Q94.59688 166.79463 95.09688 166.79463Q95.7375 166.79463 96.06563 166.60713Q96.28438 166.4665 96.39375 166.18526Q96.47188 165.98213 96.47188 165.43526L96.47188 164.51338Q95.72188 165.529 94.59688 165.529Q93.34688 165.529 92.6125 164.4665Q92.05 163.62276 92.05 162.38838Q92.05 160.81026 92.8 159.99776Q93.55 159.16963 94.675 159.16963Q95.81563 159.16963 96.56563 160.18526L96.56563 159.31026L98.1125 159.31026L98.1125 164.88838Q98.1125 165.99776 97.925 166.529Q97.75313 167.07588 97.425 167.38838Q97.09688 167.70088 96.55 167.87276Q96.00313 168.06026 95.15938 168.06026Q93.58125 168.06026 92.90938 167.51338Q92.25313 166.9665 92.25313 166.13838Q92.25313 166.06026 92.25313 165.93526ZM93.7375 162.29463Q93.7375 163.279 94.1125 163.74776Q94.50313 164.20088 95.06563 164.20088Q95.65938 164.20088 96.08125 163.73213Q96.50313 163.24776 96.50313 162.32588Q96.50313 161.35713 96.09688 160.88838Q95.70625 160.41963 95.09688 160.41963Q94.50313 160.41963 94.1125 160.88838Q93.7375 161.3415 93.7375 162.29463ZM101.05 156.93526L101.05 160.0915Q101.84688 159.16963 102.95625 159.16963Q103.51875 159.16963 103.97188 159.38838Q104.44063 159.5915 104.675 159.91963Q104.90938 160.24776 104.9875 160.654Q105.06563 161.04463 105.06563 161.87276L105.06563 165.529L103.425 165.529L103.425 162.24776Q103.425 161.26338 103.33125 160.99776Q103.2375 160.73213 103.00313 160.57588Q102.76875 160.41963 102.40938 160.41963Q102.00313 160.41963 101.675 160.62276Q101.34688 160.82588 101.19063 161.23213Q101.05 161.62276 101.05 162.404L101.05 165.529L99.40938 165.529L99.40938 156.93526L101.05 156.93526ZM109.26875 159.31026L109.26875 160.62276L108.14375 160.62276L108.14375 163.12276Q108.14375 163.88838 108.175 164.01338Q108.20625 164.13838 108.31563 164.23213Q108.44063 164.31026 108.59688 164.31026Q108.83125 164.31026 109.25313 164.13838L109.39375 165.41963Q108.83125 165.66963 108.09688 165.66963Q107.65938 165.66963 107.3 165.529Q106.94063 165.37276 106.76875 165.13838Q106.6125 164.88838 106.53438 164.49776Q106.4875 164.20088 106.4875 163.32588L106.4875 160.62276L105.7375 160.62276L105.7375 159.31026L106.4875 159.31026L106.4875 158.07588L108.14375 157.10713L108.14375 159.31026L109.26875 159.31026ZM114.01875 163.54463L115.65938 163.82588Q115.34688 164.73213 114.65938 165.20088Q113.97188 165.66963 112.95625 165.66963Q111.33125 165.66963 110.55 164.60713Q109.925 163.76338 109.925 162.4665Q109.925 160.91963 110.7375 160.04463Q111.55 159.16963 112.78438 159.16963Q114.175 159.16963 114.97188 160.0915Q115.78438 160.99776 115.7375 162.88838L111.6125 162.88838Q111.64375 163.62276 112.01875 164.029Q112.39375 164.43526 112.97188 164.43526Q113.34688 164.43526 113.6125 164.23213Q113.87813 164.01338 114.01875 163.54463ZM114.1125 161.88838Q114.09688 161.16963 113.7375 160.79463Q113.39375 160.41963 112.87813 160.41963Q112.34688 160.41963 111.9875 160.81026Q111.64375 161.2165 111.64375 161.88838L114.1125 161.88838ZM123.1125 165.529L121.59688 165.529L121.59688 164.60713Q121.20625 165.154 120.69063 165.41963Q120.175 165.66963 119.64375 165.66963Q118.56563 165.66963 117.8 164.81026Q117.05 163.93526 117.05 162.38838Q117.05 160.81026 117.78438 159.99776Q118.53438 159.16963 119.675 159.16963Q120.70625 159.16963 121.47188 160.029L121.47188 156.93526L123.1125 156.93526L123.1125 165.529ZM118.72188 162.279Q118.72188 163.279 119.00313 163.7165Q119.39375 164.37276 120.1125 164.37276Q120.675 164.37276 121.06563 163.88838Q121.47188 163.404 121.47188 162.43526Q121.47188 161.37276 121.08125 160.904Q120.70625 160.41963 120.09688 160.41963Q119.51875 160.41963 119.1125 160.88838Q118.72188 161.35713 118.72188 162.279Z" fill-rule="nonzero"/><path fill="#9e9e9e" d="M22.64375 176.04463L21.05 176.2165Q20.9875 175.73213 20.7375 175.49776Q20.4875 175.26338 20.096874 175.26338Q19.58125 175.26338 19.221874 175.73213Q18.8625 176.20088 18.76875 177.66963Q19.378124 176.95088 20.3 176.95088Q21.33125 176.95088 22.065624 177.73213Q22.8 178.51338 22.8 179.76338Q22.8 181.07588 22.01875 181.87276Q21.253124 182.66963 20.034374 182.66963Q18.7375 182.66963 17.89375 181.66963Q17.065624 180.654 17.065624 178.35713Q17.065624 175.98213 17.925 174.95088Q18.8 173.904 20.20625 173.904Q21.175 173.904 21.815624 174.45088Q22.45625 174.99776 22.64375 176.04463ZM18.909374 179.63838Q18.909374 180.43526 19.26875 180.87276Q19.64375 181.31026 20.1125 181.31026Q20.58125 181.31026 20.878124 180.95088Q21.190624 180.5915 21.190624 179.779Q21.190624 178.93526 20.8625 178.56026Q20.534374 178.16963 20.034374 178.16963Q19.565624 178.16963 19.2375 178.54463Q18.909374 178.904 18.909374 179.63838ZM24.409374 182.529L24.409374 180.88838L26.065624 180.88838L26.065624 182.529L24.409374 182.529ZM30.284374 182.529L30.284374 180.79463L26.76875 180.79463L26.76875 179.35713L30.503124 173.904L31.878124 173.904L31.878124 179.35713L32.95625 179.35713L32.95625 180.79463L31.878124 180.79463L31.878124 182.529L30.284374 182.529ZM30.284374 179.35713L30.284374 176.41963L28.315624 179.35713L30.284374 179.35713ZM34.065624 176.06026Q34.065624 174.904 34.565624 174.35713Q35.08125 173.79463 35.95625 173.79463Q36.846874 173.79463 37.346874 174.35713Q37.8625 174.904 37.8625 176.06026Q37.8625 177.2165 37.346874 177.779Q36.846874 178.32588 35.9875 178.32588Q35.08125 178.32588 34.565624 177.779Q34.065624 177.2165 34.065624 176.06026ZM35.3625 176.04463Q35.3625 176.88838 35.55 177.16963Q35.690624 177.38838 35.95625 177.38838Q36.221874 177.38838 36.3625 177.16963Q36.55 176.88838 36.55 176.04463Q36.55 175.2165 36.3625 174.93526Q36.221874 174.7165 35.95625 174.7165Q35.690624 174.7165 35.55 174.91963Q35.3625 175.2165 35.3625 176.04463ZM37.20625 182.85713L35.9875 182.85713L40.565624 173.79463L41.753124 173.79463L37.20625 182.85713ZM39.8625 180.60713Q39.8625 179.45088 40.3625 178.88838Q40.878124 178.32588 41.753124 178.32588Q42.64375 178.32588 43.14375 178.88838Q43.659374 179.45088 43.659374 180.60713Q43.659374 181.76338 43.14375 182.32588Q42.64375 182.87276 41.784374 182.87276Q40.878124 182.87276 40.3625 182.32588Q39.8625 181.76338 39.8625 180.60713ZM41.14375 180.5915Q41.14375 181.43526 41.346874 181.7165Q41.4875 181.93526 41.753124 181.93526Q42.01875 181.93526 42.159374 181.7165Q42.346874 181.43526 42.346874 180.5915Q42.346874 179.76338 42.159374 179.4665Q42.01875 179.26338 41.753124 179.26338Q41.4875 179.26338 41.346874 179.4665Q41.14375 179.76338 41.14375 180.5915Z" fill-rule="nonzero"/><path stroke="#757575" stroke-width="1.0" stroke-linecap="butt" d="M16.55 170.029L128.05 170.029L141.56999 170.029" fill-rule="nonzero"/><path fill="#9e9e9e" d="M143.56999 170.029C143.56999 168.92444 142.67456 168.029 141.56999 168.029C140.46542 168.029 139.56999 168.92444 139.56999 170.029C139.56999 171.13358 140.46542 172.029 141.56999 172.029C142.67456 172.029 143.56999 171.13358 143.56999 170.029" fill-rule="nonzero"/><path fill="#000000" d="M22.925 227.8516L24.596874 228.38284Q24.221874 229.7891 23.315624 230.4766Q22.409374 231.14847 21.034374 231.14847Q19.315624 231.14847 18.20625 229.99222Q17.1125 228.82034 17.1125 226.7891Q17.1125 224.64847 18.221874 223.46097Q19.33125 222.27347 21.14375 222.27347Q22.721874 222.27347 23.70625 223.19534Q24.284374 223.75784 24.58125 224.7891L22.8625 225.19534Q22.70625 224.52347 22.221874 224.14847Q21.7375 223.75784 21.05 223.75784Q20.096874 223.75784 19.503124 224.44534Q18.909374 225.11722 18.909374 226.6641Q18.909374 228.2891 19.4875 228.9766Q20.08125 229.6641 21.01875 229.6641Q21.70625 229.6641 22.20625 229.2266Q22.70625 228.7891 22.925 227.8516ZM28.284374 231.00784L28.284374 229.27347L24.76875 229.27347L24.76875 227.83597L28.503124 222.38284L29.878124 222.38284L29.878124 227.83597L30.95625 227.83597L30.95625 229.27347L29.878124 229.27347L29.878124 231.00784L28.284374 231.00784ZM28.284374 227.83597L28.284374 224.89847L26.315624 227.83597L28.284374 227.83597ZM32.221874 228.71097L32.221874 227.07034L35.45625 227.07034L35.45625 228.71097L32.221874 228.71097ZM36.425 231.00784L36.425 222.4141L42.8 222.4141L42.8 223.86722L38.159374 223.86722L38.159374 225.77347L42.471874 225.77347L42.471874 227.2266L38.159374 227.2266L38.159374 229.55472L42.95625 229.55472L42.95625 231.00784L36.425 231.00784ZM43.440624 231.00784L43.440624 222.4141L45.128124 222.4141L48.64375 228.14847L48.64375 222.4141L50.253124 222.4141L50.253124 231.00784L48.51875 231.00784L45.05 225.39847L45.05 231.00784L43.440624 231.00784Z" fill-rule="nonzero"/><path fill="#9e9e9e" d="M17.096874 246.02347L18.690624 245.8516Q18.753124 246.33597 18.9875 246.57034Q19.2375 246.80472 19.64375 246.80472Q20.159374 246.80472 20.503124 246.33597Q20.8625 245.86722 20.971874 244.38284Q20.346874 245.1016 19.409374 245.1016Q18.409374 245.1016 17.659374 244.32034Q16.925 243.5391 16.925 242.2891Q16.925 240.9766 17.70625 240.17972Q18.4875 239.38284 19.690624 239.38284Q20.9875 239.38284 21.83125 240.39847Q22.675 241.39847 22.675 243.71097Q22.675 246.07034 21.8 247.11722Q20.925 248.1641 19.51875 248.1641Q18.51875 248.1641 17.89375 247.63284Q17.26875 247.08597 17.096874 246.02347ZM20.815624 242.42972Q20.815624 241.63284 20.45625 241.19534Q20.096874 240.74222 19.6125 240.74222Q19.159374 240.74222 18.846874 241.1016Q18.55 241.46097 18.55 242.2891Q18.55 243.11722 18.878124 243.50784Q19.20625 243.89847 19.690624 243.89847Q20.175 243.89847 20.4875 243.52347Q20.815624 243.14847 20.815624 242.42972ZM24.409374 248.00784L24.409374 246.36722L26.065624 246.36722L26.065624 248.00784L24.409374 248.00784ZM31.26875 248.00784L29.628124 248.00784L29.628124 241.80472Q28.721874 242.64847 27.503124 243.05472L27.503124 241.55472Q28.14375 241.3516 28.89375 240.75784Q29.659374 240.1641 29.940624 239.38284L31.26875 239.38284L31.26875 248.00784ZM34.065624 241.5391Q34.065624 240.38284 34.565624 239.83597Q35.08125 239.27347 35.95625 239.27347Q36.846874 239.27347 37.346874 239.83597Q37.8625 240.38284 37.8625 241.5391Q37.8625 242.69534 37.346874 243.25784Q36.846874 243.80472 35.9875 243.80472Q35.08125 243.80472 34.565624 243.25784Q34.065624 242.69534 34.065624 241.5391ZM35.3625 241.52347Q35.3625 242.36722 35.55 242.64847Q35.690624 242.86722 35.95625 242.86722Q36.221874 242.86722 36.3625 242.64847Q36.55 242.36722 36.55 241.52347Q36.55 240.69534 36.3625 240.4141Q36.221874 240.19534 35.95625 240.19534Q35.690624 240.19534 35.55 240.39847Q35.3625 240.69534 35.3625 241.52347ZM37.20625 248.33597L35.9875 248.33597L40.565624 239.27347L41.753124 239.27347L37.20625 248.33597ZM39.8625 246.08597Q39.8625 244.92972 40.3625 244.36722Q40.878124 243.80472 41.753124 243.80472Q42.64375 243.80472 43.14375 244.36722Q43.659374 244.92972 43.659374 246.08597Q43.659374 247.24222 43.14375 247.80472Q42.64375 248.3516 41.784374 248.3516Q40.878124 248.3516 40.3625 247.80472Q39.8625 247.24222 39.8625 246.08597ZM41.14375 246.07034Q41.14375 246.9141 41.346874 247.19534Q41.4875 247.4141 41.753124 247.4141Q42.01875 247.4141 42.159374 247.19534Q42.346874 246.9141 42.346874 246.07034Q42.346874 245.24222 42.159374 244.94534Q42.01875 244.74222 41.753124 244.74222Q41.4875 244.74222 41.346874 244.94534Q41.14375 245.24222 41.14375 246.07034Z" fill-rule="nonzero"/><path stroke="#757575" stroke-width="1.0" stroke-linecap="butt" d="M16.55 235.50784L128.05 235.50784L160.02904 235.50784" fill-rule="nonzero"/><path fill="#9e9e9e" d="M162.02904 235.50784C162.02904 234.40327 161.1336 233.50784 160.02904 233.50784C158.92447 233.50784 158.02904 234.40327 158.02904 235.50784C158.02904 236.61241 158.92447 237.50784 160.02904 237.50784C161.1336 237.50784 162.02904 236.61241 162.02904 235.50784" fill-rule="nonzero"/><path fill="#000000" d="M16.9875 291.65314L18.675 291.4969Q18.83125 292.34064 19.284374 292.7469Q19.753124 293.1375 20.55 293.1375Q21.378124 293.1375 21.8 292.79376Q22.2375 292.4344 22.2375 291.95Q22.2375 291.65314 22.05 291.4344Q21.878124 291.21564 21.425 291.0594Q21.128124 290.95 20.05 290.6844Q18.64375 290.34064 18.08125 289.84064Q17.3 289.1219 17.3 288.10626Q17.3 287.45 17.659374 286.8875Q18.034374 286.3094 18.7375 286.0125Q19.440624 285.71564 20.425 285.71564Q22.05 285.71564 22.8625 286.4344Q23.675 287.1375 23.721874 288.3094L21.9875 288.3875Q21.878124 287.73126 21.503124 287.45Q21.14375 287.15314 20.409374 287.15314Q19.659374 287.15314 19.221874 287.46564Q18.95625 287.65314 18.95625 287.9969Q18.95625 288.29376 19.20625 288.5125Q19.534374 288.79376 20.8 289.09064Q22.065624 289.3875 22.675 289.71564Q23.284374 290.02814 23.628124 290.59064Q23.971874 291.1375 23.971874 291.95Q23.971874 292.6844 23.55 293.34064Q23.14375 293.98126 22.39375 294.29376Q21.64375 294.60626 20.534374 294.60626Q18.89375 294.60626 18.01875 293.85626Q17.159374 293.09064 16.9875 291.65314ZM25.409374 294.45L25.409374 285.85626L27.065624 285.85626L27.065624 294.45L25.409374 294.45ZM28.409374 287.3875L28.409374 285.85626L30.065624 285.85626L30.065624 287.3875L28.409374 287.3875ZM28.409374 294.45L28.409374 288.23126L30.065624 288.23126L30.065624 294.45L28.409374 294.45ZM31.284374 288.23126L32.8 288.23126L32.8 289.075Q33.628124 288.09064 34.753124 288.09064Q35.346874 288.09064 35.784374 288.34064Q36.221874 288.575 36.503124 289.075Q36.909374 288.575 37.378124 288.34064Q37.8625 288.09064 38.409374 288.09064Q39.08125 288.09064 39.55 288.3719Q40.034374 288.6375 40.26875 289.1844Q40.440624 289.575 40.440624 290.46564L40.440624 294.45L38.8 294.45L38.8 290.8875Q38.8 289.96564 38.628124 289.7Q38.39375 289.34064 37.925 289.34064Q37.58125 289.34064 37.26875 289.5594Q36.971874 289.7625 36.83125 290.16876Q36.690624 290.575 36.690624 291.46564L36.690624 294.45L35.05 294.45L35.05 291.04376Q35.05 290.1375 34.95625 289.8719Q34.878124 289.60626 34.690624 289.48126Q34.503124 289.34064 34.190624 289.34064Q33.815624 289.34064 33.503124 289.5594Q33.20625 289.7625 33.065624 290.15314Q32.940624 290.52814 32.940624 291.41876L32.940624 294.45L31.284374 294.45L31.284374 288.23126ZM42.425 294.45L42.425 285.85626L45.20625 285.85626Q46.784374 285.85626 47.26875 285.98126Q48.003124 286.1844 48.503124 286.84064Q49.003124 287.48126 49.003124 288.4969Q49.003124 289.29376 48.70625 289.84064Q48.425 290.3719 47.9875 290.6844Q47.55 290.98126 47.08125 291.09064Q46.471874 291.21564 45.284374 291.21564L44.159374 291.21564L44.159374 294.45L42.425 294.45ZM44.159374 287.3094L44.159374 289.7469L45.1125 289.7469Q46.128124 289.7469 46.471874 289.6219Q46.83125 289.48126 47.01875 289.2Q47.221874 288.90314 47.221874 288.52814Q47.221874 288.0594 46.940624 287.7625Q46.659374 287.45 46.2375 287.3719Q45.940624 287.3094 45.003124 287.3094L44.159374 287.3094ZM51.64375 290.1219L50.14375 289.85626Q50.39375 288.95 51.003124 288.52814Q51.628124 288.09064 52.846874 288.09064Q53.940624 288.09064 54.471874 288.35626Q55.01875 288.60626 55.2375 289.0125Q55.45625 289.40314 55.45625 290.48126L55.440624 292.40314Q55.440624 293.23126 55.51875 293.6219Q55.596874 293.9969 55.815624 294.45L54.190624 294.45Q54.128124 294.27814 54.034374 293.96564Q53.9875 293.8094 53.971874 293.7625Q53.55 294.1844 53.065624 294.3875Q52.596874 294.59064 52.05 294.59064Q51.08125 294.59064 50.51875 294.075Q49.971874 293.54376 49.971874 292.7469Q49.971874 292.21564 50.221874 291.8094Q50.4875 291.40314 50.940624 291.1844Q51.39375 290.95 52.253124 290.79376Q53.39375 290.575 53.846874 290.3875L53.846874 290.23126Q53.846874 289.7469 53.6125 289.54376Q53.378124 289.34064 52.721874 289.34064Q52.284374 289.34064 52.034374 289.5125Q51.8 289.6844 51.64375 290.1219ZM53.846874 291.46564Q53.534374 291.5594 52.846874 291.71564Q52.159374 291.85626 51.940624 291.9969Q51.628124 292.23126 51.628124 292.575Q51.628124 292.91876 51.878124 293.1844Q52.14375 293.4344 52.534374 293.4344Q52.9875 293.4344 53.39375 293.1375Q53.690624 292.91876 53.784374 292.59064Q53.846874 292.3875 53.846874 291.79376L53.846874 291.46564ZM57.378124 287.3875L57.378124 285.85626L59.01875 285.85626L59.01875 287.3875L57.378124 287.3875ZM59.01875 288.23126L59.01875 294.2625Q59.01875 295.45 58.8625 295.9344Q58.70625 296.41876 58.26875 296.7Q57.83125 296.98126 57.14375 296.98126Q56.89375 296.98126 56.6125 296.9344Q56.33125 296.8875 56.003124 296.79376L56.284374 295.3875Q56.409374 295.41876 56.51875 295.4344Q56.6125 295.45 56.690624 295.45Q56.95625 295.45 57.1125 295.34064Q57.26875 295.23126 57.315624 295.075Q57.378124 294.91876 57.378124 294.16876L57.378124 288.23126L59.01875 288.23126ZM61.64375 290.1219L60.14375 289.85626Q60.39375 288.95 61.003124 288.52814Q61.628124 288.09064 62.846874 288.09064Q63.940624 288.09064 64.47188 288.35626Q65.01875 288.60626 65.2375 289.0125Q65.45625 289.40314 65.45625 290.48126L65.44063 292.40314Q65.44063 293.23126 65.51875 293.6219Q65.59688 293.9969 65.81563 294.45L64.19063 294.45Q64.12813 294.27814 64.03438 293.96564Q63.9875 293.8094 63.971874 293.7625Q63.55 294.1844 63.065624 294.3875Q62.596874 294.59064 62.05 294.59064Q61.08125 294.59064 60.51875 294.075Q59.971874 293.54376 59.971874 292.7469Q59.971874 292.21564 60.221874 291.8094Q60.4875 291.40314 60.940624 291.1844Q61.39375 290.95 62.253124 290.79376Q63.39375 290.575 63.846874 290.3875L63.846874 290.23126Q63.846874 289.7469 63.6125 289.54376Q63.378124 289.34064 62.721874 289.34064Q62.284374 289.34064 62.034374 289.5125Q61.8 289.6844 61.64375 290.1219ZM63.846874 291.46564Q63.534374 291.5594 62.846874 291.71564Q62.159374 291.85626 61.940624 291.9969Q61.628124 292.23126 61.628124 292.575Q61.628124 292.91876 61.878124 293.1844Q62.14375 293.4344 62.534374 293.4344Q62.9875 293.4344 63.39375 293.1375Q63.690624 292.91876 63.784374 292.59064Q63.846874 292.3875 63.846874 291.79376L63.846874 291.46564ZM67.28438 288.23126L68.8 288.23126L68.8 289.075Q69.62813 288.09064 70.75313 288.09064Q71.34688 288.09064 71.78438 288.34064Q72.22188 288.575 72.50313 289.075Q72.90938 288.575 73.37813 288.34064Q73.8625 288.09064 74.40938 288.09064Q75.08125 288.09064 75.55 288.3719Q76.03438 288.6375 76.26875 289.1844Q76.44063 289.575 76.44063 290.46564L76.44063 294.45L74.8 294.45L74.8 290.8875Q74.8 289.96564 74.62813 289.7Q74.39375 289.34064 73.925 289.34064Q73.58125 289.34064 73.26875 289.5594Q72.97188 289.7625 72.83125 290.16876Q72.69063 290.575 72.69063 291.46564L72.69063 294.45L71.05 294.45L71.05 291.04376Q71.05 290.1375 70.95625 289.8719Q70.87813 289.60626 70.69063 289.48126Q70.50313 289.34064 70.19063 289.34064Q69.81563 289.34064 69.50313 289.5594Q69.20625 289.7625 69.06563 290.15314Q68.94063 290.52814 68.94063 291.41876L68.94063 294.45L67.28438 294.45L67.28438 288.23126ZM79.64375 290.1219L78.14375 289.85626Q78.39375 288.95 79.00313 288.52814Q79.62813 288.09064 80.84688 288.09064Q81.94063 288.09064 82.47188 288.35626Q83.01875 288.60626 83.2375 289.0125Q83.45625 289.40314 83.45625 290.48126L83.44063 292.40314Q83.44063 293.23126 83.51875 293.6219Q83.59688 293.9969 83.81563 294.45L82.19063 294.45Q82.12813 294.27814 82.03438 293.96564Q81.9875 293.8094 81.97188 293.7625Q81.55 294.1844 81.06563 294.3875Q80.59688 294.59064 80.05 294.59064Q79.08125 294.59064 78.51875 294.075Q77.97188 293.54376 77.97188 292.7469Q77.97188 292.21564 78.22188 291.8094Q78.4875 291.40314 78.94063 291.1844Q79.39375 290.95 80.25313 290.79376Q81.39375 290.575 81.84688 290.3875L81.84688 290.23126Q81.84688 289.7469 81.6125 289.54376Q81.37813 289.34064 80.72188 289.34064Q80.28438 289.34064 80.03438 289.5125Q79.8 289.6844 79.64375 290.1219ZM81.84688 291.46564Q81.53438 291.5594 80.84688 291.71564Q80.15938 291.85626 79.94063 291.9969Q79.62813 292.23126 79.62813 292.575Q79.62813 292.91876 79.87813 293.1844Q80.14375 293.4344 80.53438 293.4344Q80.9875 293.4344 81.39375 293.1375Q81.69063 292.91876 81.78438 292.59064Q81.84688 292.3875 81.84688 291.79376L81.84688 291.46564Z" fill-rule="nonzero"/><path fill="#9e9e9e" d="M21.26875 311.45L19.628124 311.45L19.628124 305.2469Q18.721874 306.09064 17.503124 306.4969L17.503124 304.9969Q18.14375 304.79376 18.89375 304.2Q19.659374 303.60626 19.940624 302.825L21.26875 302.825L21.26875 311.45ZM25.471874 306.8094Q24.83125 306.54376 24.534374 306.075Q24.253124 305.60626 24.253124 305.04376Q24.253124 304.075 24.925 303.45Q25.596874 302.825 26.83125 302.825Q28.05 302.825 28.721874 303.45Q29.409374 304.075 29.409374 305.04376Q29.409374 305.6375 29.096874 306.10626Q28.784374 306.575 28.221874 306.8094Q28.940624 307.10626 29.315624 307.65314Q29.690624 308.2 29.690624 308.91876Q29.690624 310.10626 28.925 310.85626Q28.175 311.60626 26.909374 311.60626Q25.7375 311.60626 24.95625 310.98126Q24.034374 310.2625 24.034374 308.9969Q24.034374 308.29376 24.378124 307.71564Q24.721874 307.1375 25.471874 306.8094ZM25.815624 305.15314Q25.815624 305.65314 26.08125 305.9344Q26.3625 306.2 26.83125 306.2Q27.3 306.2 27.58125 305.91876Q27.8625 305.6375 27.8625 305.15314Q27.8625 304.6844 27.58125 304.41876Q27.3 304.1375 26.846874 304.1375Q26.378124 304.1375 26.096874 304.41876Q25.815624 304.7 25.815624 305.15314ZM25.659374 308.84064Q25.659374 309.5125 26.003124 309.90314Q26.3625 310.27814 26.878124 310.27814Q27.39375 310.27814 27.721874 309.91876Q28.05 309.54376 28.05 308.85626Q28.05 308.2469 27.70625 307.8875Q27.378124 307.5125 26.8625 307.5125Q26.253124 307.5125 25.95625 307.9344Q25.659374 308.35626 25.659374 308.84064ZM31.409374 311.45L31.409374 309.8094L33.065624 309.8094L33.065624 311.45L31.409374 311.45ZM34.065624 304.5125L34.065624 302.98126L39.690624 302.98126L39.690624 304.16876Q38.9875 304.85626 38.26875 306.1375Q37.55 307.41876 37.175 308.8719Q36.8 310.3094 36.8 311.45L35.221874 311.45Q35.253124 309.66876 35.940624 307.825Q36.64375 305.96564 37.8 304.5125L34.065624 304.5125ZM41.065624 304.98126Q41.065624 303.825 41.565624 303.27814Q42.08125 302.71564 42.95625 302.71564Q43.846874 302.71564 44.346874 303.27814Q44.8625 303.825 44.8625 304.98126Q44.8625 306.1375 44.346874 306.7Q43.846874 307.2469 42.9875 307.2469Q42.08125 307.2469 41.565624 306.7Q41.065624 306.1375 41.065624 304.98126ZM42.3625 304.96564Q42.3625 305.8094 42.55 306.09064Q42.690624 306.3094 42.95625 306.3094Q43.221874 306.3094 43.3625 306.09064Q43.55 305.8094 43.55 304.96564Q43.55 304.1375 43.3625 303.85626Q43.221874 303.6375 42.95625 303.6375Q42.690624 303.6375 42.55 303.84064Q42.3625 304.1375 42.3625 304.96564ZM44.20625 311.77814L42.9875 311.77814L47.565624 302.71564L48.753124 302.71564L44.20625 311.77814ZM46.8625 309.52814Q46.8625 308.3719 47.3625 307.8094Q47.878124 307.2469 48.753124 307.2469Q49.64375 307.2469 50.14375 307.8094Q50.659374 308.3719 50.659374 309.52814Q50.659374 310.6844 50.14375 311.2469Q49.64375 311.79376 48.784374 311.79376Q47.878124 311.79376 47.3625 311.2469Q46.8625 310.6844 46.8625 309.52814ZM48.14375 309.5125Q48.14375 310.35626 48.346874 310.6375Q48.4875 310.85626 48.753124 310.85626Q49.01875 310.85626 49.159374 310.6375Q49.346874 310.35626 49.346874 309.5125Q49.346874 308.6844 49.159374 308.3875Q49.01875 308.1844 48.753124 308.1844Q48.4875 308.1844 48.346874 308.3875Q48.14375 308.6844 48.14375 309.5125Z" fill-rule="nonzero"/><path stroke="#757575" stroke-width="1.0" stroke-linecap="butt" d="M16.55 298.95L128.05 298.95L257.43344 304.67368" fill-rule="nonzero"/><path fill="#9e9e9e" d="M259.43344 304.67368C259.43344 303.5691 258.538 302.67368 257.43344 302.67368C256.32886 302.67368 255.43343 303.5691 255.43343 304.67368C255.43343 305.77823 256.32886 306.67368 257.43344 306.67368C258.538 306.67368 259.43344 305.77823 259.43344 304.67368" fill-rule="nonzero"/><path fill="#000000" d="M481.325 132.52495L481.325 123.9312L484.98126 123.9312Q486.35626 123.9312 486.98126 124.16557Q487.60626 124.39995 487.98126 124.9937Q488.35626 125.58745 488.35626 126.33745Q488.35626 127.3062 487.77814 127.94682Q487.21564 128.57182 486.09064 128.72807Q486.65314 129.0562 487.0125 129.46245Q487.3875 129.85307 487.9969 130.85307L489.0594 132.52495L486.98126 132.52495L485.73126 130.64995Q485.0594 129.64995 484.8094 129.39995Q484.5594 129.13432 484.27814 129.04057Q484.0125 128.9312 483.41876 128.9312L483.0594 128.9312L483.0594 132.52495L481.325 132.52495ZM483.0594 127.57182L484.34064 127.57182Q485.59064 127.57182 485.90314 127.46245Q486.21564 127.35307 486.3875 127.10307Q486.575 126.83745 486.575 126.44682Q486.575 126.02495 486.34064 125.75932Q486.10626 125.4937 485.6844 125.41557Q485.46564 125.38432 484.41876 125.38432L483.0594 125.38432L483.0594 127.57182ZM492.91876 130.54057L494.5594 130.82182Q494.2469 131.72807 493.5594 132.19682Q492.8719 132.66557 491.85626 132.66557Q490.23126 132.66557 489.45 131.60307Q488.825 130.75932 488.825 129.46245Q488.825 127.91557 489.6375 127.04057Q490.45 126.16557 491.6844 126.16557Q493.075 126.16557 493.8719 127.08745Q494.6844 127.9937 494.6375 129.88432L490.5125 129.88432Q490.54376 130.6187 490.91876 131.02495Q491.29376 131.4312 491.8719 131.4312Q492.2469 131.4312 492.5125 131.22807Q492.77814 131.00932 492.91876 130.54057ZM493.0125 128.88432Q492.9969 128.16557 492.6375 127.79057Q492.29376 127.41557 491.77814 127.41557Q491.2469 127.41557 490.8875 127.8062Q490.54376 128.21245 490.54376 128.88432L493.0125 128.88432ZM495.59064 126.3062L496.5125 126.3062L496.5125 125.83745Q496.5125 125.04057 496.66876 124.66557Q496.84064 124.27495 497.27814 124.04057Q497.73126 123.79057 498.41876 123.79057Q499.1219 123.79057 499.79376 123.9937L499.575 125.14995Q499.1844 125.0562 498.825 125.0562Q498.46564 125.0562 498.3094 125.22807Q498.15314 125.38432 498.15314 125.8687L498.15314 126.3062L499.3875 126.3062L499.3875 127.60307L498.15314 127.60307L498.15314 132.52495L496.5125 132.52495L496.5125 127.60307L495.59064 127.60307L495.59064 126.3062ZM500.3094 125.46245L500.3094 123.9312L501.96564 123.9312L501.96564 125.46245L500.3094 125.46245ZM500.3094 132.52495L500.3094 126.3062L501.96564 126.3062L501.96564 132.52495L500.3094 132.52495ZM508.96564 132.52495L507.325 132.52495L507.325 129.35307Q507.325 128.33745 507.21564 128.04057Q507.1219 127.7437 506.8719 127.58745Q506.6375 127.41557 506.3094 127.41557Q505.8719 127.41557 505.52814 127.64995Q505.2 127.88432 505.075 128.27495Q504.95 128.66557 504.95 129.71245L504.95 132.52495L503.29376 132.52495L503.29376 126.3062L504.825 126.3062L504.825 127.21245Q505.6375 126.16557 506.8875 126.16557Q507.41876 126.16557 507.8719 126.3687Q508.325 126.5562 508.5594 126.8687Q508.79376 127.16557 508.8719 127.5562Q508.96564 127.9312 508.96564 128.64995L508.96564 132.52495ZM513.91876 130.54057L515.5594 130.82182Q515.2469 131.72807 514.5594 132.19682Q513.8719 132.66557 512.85626 132.66557Q511.23126 132.66557 510.45 131.60307Q509.825 130.75932 509.825 129.46245Q509.825 127.91557 510.6375 127.04057Q511.45 126.16557 512.6844 126.16557Q514.075 126.16557 514.8719 127.08745Q515.6844 127.9937 515.6375 129.88432L511.5125 129.88432Q511.54376 130.6187 511.91876 131.02495Q512.29376 131.4312 512.8719 131.4312Q513.2469 131.4312 513.5125 131.22807Q513.77814 131.00932 513.91876 130.54057ZM514.0125 128.88432Q513.9969 128.16557 513.6375 127.79057Q513.29376 127.41557 512.77814 127.41557Q512.2469 127.41557 511.8875 127.8062Q511.54376 128.21245 511.54376 128.88432L514.0125 128.88432ZM523.0125 132.52495L521.4969 132.52495L521.4969 131.60307Q521.10626 132.14995 520.59064 132.41557Q520.075 132.66557 519.54376 132.66557Q518.46564 132.66557 517.7 131.8062Q516.95 130.9312 516.95 129.38432Q516.95 127.8062 517.6844 126.9937Q518.4344 126.16557 519.575 126.16557Q520.60626 126.16557 521.3719 127.02495L521.3719 123.9312L523.0125 123.9312L523.0125 132.52495ZM518.6219 129.27495Q518.6219 130.27495 518.90314 130.71245Q519.29376 131.3687 520.0125 131.3687Q520.575 131.3687 520.96564 130.88432Q521.3719 130.39995 521.3719 129.4312Q521.3719 128.3687 520.98126 127.89995Q520.60626 127.41557 519.9969 127.41557Q519.41876 127.41557 519.0125 127.88432Q518.6219 128.35307 518.6219 129.27495ZM525.54376 132.52495L523.4969 123.9312L525.2625 123.9312L526.5594 129.83745L528.1375 123.9312L530.2 123.9312L531.7 129.9312L533.0125 123.9312L534.7625 123.9312L532.6844 132.52495L530.84064 132.52495L529.1219 126.10307L527.41876 132.52495L525.54376 132.52495ZM539.91876 130.54057L541.5594 130.82182Q541.2469 131.72807 540.5594 132.19682Q539.8719 132.66557 538.85626 132.66557Q537.23126 132.66557 536.45 131.60307Q535.825 130.75932 535.825 129.46245Q535.825 127.91557 536.6375 127.04057Q537.45 126.16557 538.6844 126.16557Q540.075 126.16557 540.8719 127.08745Q541.6844 127.9937 541.6375 129.88432L537.5125 129.88432Q537.54376 130.6187 537.91876 131.02495Q538.29376 131.4312 538.8719 131.4312Q539.2469 131.4312 539.5125 131.22807Q539.77814 131.00932 539.91876 130.54057ZM540.0125 128.88432Q539.9969 128.16557 539.6375 127.79057Q539.29376 127.41557 538.77814 127.41557Q538.2469 127.41557 537.8875 127.8062Q537.54376 128.21245 537.54376 128.88432L540.0125 128.88432ZM543.2469 132.52495L543.2469 123.9312L544.8875 123.9312L544.8875 127.02495Q545.65314 126.16557 546.7 126.16557Q547.825 126.16557 548.575 126.9937Q549.325 127.8062 549.325 129.35307Q549.325 130.94682 548.5594 131.8062Q547.79376 132.66557 546.71564 132.66557Q546.1844 132.66557 545.66876 132.39995Q545.15314 132.13432 544.77814 131.60307L544.77814 132.52495L543.2469 132.52495ZM544.8719 129.27495Q544.8719 130.2437 545.1844 130.71245Q545.60626 131.3687 546.325 131.3687Q546.85626 131.3687 547.2469 130.89995Q547.6375 130.4312 547.6375 129.4312Q547.6375 128.3687 547.2469 127.89995Q546.85626 127.41557 546.2469 127.41557Q545.66876 127.41557 545.2625 127.88432Q544.8719 128.33745 544.8719 129.27495Z" fill-rule="nonzero"/><path fill="#9e9e9e" d="M520.1844 149.52495L520.1844 147.79057L516.66876 147.79057L516.66876 146.35307L520.40314 140.89995L521.77814 140.89995L521.77814 146.35307L522.85626 146.35307L522.85626 147.79057L521.77814 147.79057L521.77814 149.52495L520.1844 149.52495ZM520.1844 146.35307L520.1844 143.41557L518.21564 146.35307L520.1844 146.35307ZM523.90314 147.2437L525.4969 147.0562Q525.575 147.66557 525.90314 147.9937Q526.2469 148.3062 526.71564 148.3062Q527.23126 148.3062 527.575 147.91557Q527.91876 147.52495 527.91876 146.8687Q527.91876 146.25932 527.575 145.89995Q527.2469 145.52495 526.77814 145.52495Q526.45 145.52495 526.0125 145.64995L526.2 144.3062Q526.8719 144.32182 527.21564 144.02495Q527.575 143.71245 527.575 143.19682Q527.575 142.77495 527.3094 142.52495Q527.0594 142.25932 526.6219 142.25932Q526.2 142.25932 525.90314 142.5562Q525.60626 142.83745 525.54376 143.39995L524.02814 143.14995Q524.1844 142.3687 524.4969 141.89995Q524.825 141.4312 525.3875 141.16557Q525.96564 140.89995 526.66876 140.89995Q527.8875 140.89995 528.6219 141.66557Q529.21564 142.3062 529.21564 143.10307Q529.21564 144.22807 527.98126 144.89995Q528.73126 145.07182 529.16876 145.6187Q529.60626 146.16557 529.60626 146.94682Q529.60626 148.07182 528.77814 148.8687Q527.95 149.66557 526.73126 149.66557Q525.5594 149.66557 524.79376 148.9937Q524.02814 148.32182 523.90314 147.2437ZM531.3094 149.52495L531.3094 147.88432L532.96564 147.88432L532.96564 149.52495L531.3094 149.52495ZM539.54376 143.04057L537.95 143.21245Q537.8875 142.72807 537.6375 142.4937Q537.3875 142.25932 536.9969 142.25932Q536.48126 142.25932 536.1219 142.72807Q535.7625 143.19682 535.66876 144.66557Q536.27814 143.94682 537.2 143.94682Q538.23126 143.94682 538.96564 144.72807Q539.7 145.50932 539.7 146.75932Q539.7 148.07182 538.91876 148.8687Q538.15314 149.66557 536.9344 149.66557Q535.6375 149.66557 534.79376 148.66557Q533.96564 147.64995 533.96564 145.35307Q533.96564 142.97807 534.825 141.94682Q535.7 140.89995 537.10626 140.89995Q538.075 140.89995 538.71564 141.44682Q539.35626 141.9937 539.54376 143.04057ZM535.8094 146.63432Q535.8094 147.4312 536.16876 147.8687Q536.54376 148.3062 537.0125 148.3062Q537.48126 148.3062 537.77814 147.94682Q538.09064 147.58745 538.09064 146.77495Q538.09064 145.9312 537.7625 145.5562Q537.4344 145.16557 536.9344 145.16557Q536.46564 145.16557 536.1375 145.54057Q535.8094 145.89995 535.8094 146.63432ZM540.96564 143.0562Q540.96564 141.89995 541.46564 141.35307Q541.98126 140.79057 542.85626 140.79057Q543.7469 140.79057 544.2469 141.35307Q544.7625 141.89995 544.7625 143.0562Q544.7625 144.21245 544.2469 144.77495Q543.7469 145.32182 542.8875 145.32182Q541.98126 145.32182 541.46564 144.77495Q540.96564 144.21245 540.96564 143.0562ZM542.2625 143.04057Q542.2625 143.88432 542.45 144.16557Q542.59064 144.38432 542.85626 144.38432Q543.1219 144.38432 543.2625 144.16557Q543.45 143.88432 543.45 143.04057Q543.45 142.21245 543.2625 141.9312Q543.1219 141.71245 542.85626 141.71245Q542.59064 141.71245 542.45 141.91557Q542.2625 142.21245 542.2625 143.04057ZM544.10626 149.85307L542.8875 149.85307L547.46564 140.79057L548.65314 140.79057L544.10626 149.85307ZM546.7625 147.60307Q546.7625 146.44682 547.2625 145.88432Q547.77814 145.32182 548.65314 145.32182Q549.54376 145.32182 550.04376 145.88432Q550.5594 146.44682 550.5594 147.60307Q550.5594 148.75932 550.04376 149.32182Q549.54376 149.8687 548.6844 149.8687Q547.77814 149.8687 547.2625 149.32182Q546.7625 148.75932 546.7625 147.60307ZM548.04376 147.58745Q548.04376 148.4312 548.2469 148.71245Q548.3875 148.9312 548.65314 148.9312Q548.91876 148.9312 549.0594 148.71245Q549.2469 148.4312 549.2469 147.58745Q549.2469 146.75932 549.0594 146.46245Q548.91876 146.25932 548.65314 146.25932Q548.3875 146.25932 548.2469 146.46245Q548.04376 146.75932 548.04376 147.58745Z" fill-rule="nonzero"/><path stroke="#757575" stroke-width="1.0" stroke-linecap="butt" d="M549.45 137.02495L437.95 137.02495L421.60782 137.02495" fill-rule="nonzero"/><path fill="#9e9e9e" d="M423.60782 137.02495C423.60782 135.92038 422.7124 135.02495 421.60782 135.02495C420.50327 135.02495 419.60782 135.92038 419.60782 137.02495C419.60782 138.12952 420.50327 139.02495 421.60782 139.02495C422.7124 139.02495 423.60782 138.12952 423.60782 137.02495" fill-rule="nonzero"/></svg>